<svg width="126" height="30" viewBox="0 0 126 30" fill="none" xmlns="http://www.w3.org/2000/svg">
<path d="M12.8212 25.9457C19.5504 25.9457 21.6607 23.2169 21.6607 18.8507C21.6607 14.4846 19.5504 11.7168 12.8212 11.7168C6.05225 11.7168 3.98174 14.4846 3.98174 18.8507C3.98174 23.2169 6.05225 25.9457 12.8212 25.9457ZM0 18.8507C0 13.0422 3.70302 7.97434 12.8212 7.97434C16.4844 7.97434 19.2716 8.793 21.3023 10.1574V10.1184H28.7482V7.89638V7.89638C30.9472 7.89638 32.7299 9.67907 32.7299 11.8781V30V30C30.5309 30 28.7482 28.2173 28.7482 26.0183V19.3575H25.6424C25.4035 24.9321 21.581 29.6881 12.8212 29.6881C3.74284 29.6881 0 24.6593 0 18.8507ZM24.5275 13.8219C24.8063 14.4066 25.0452 15.0304 25.2044 15.6541H28.7482V13.8219H24.5275Z" fill="white"/>
<path d="M38.0694 17.3866C36.0025 17.3866 34.327 15.7111 34.327 13.6442V13.6442H63.0756C65.1425 13.6442 66.818 15.3197 66.818 17.3866V17.3866H53.1208V22.4935H49.1391V17.3866H38.0694ZM34.765 8.65433C42.9674 7.32889 46.9889 5.10683 48.5418 3.27461V0H52.5235V3.15766C54.1162 4.67801 58.2174 6.54922 66.2207 7.87466L65.5837 11.4611C57.8989 10.1747 53.1606 8.22551 50.6521 6.3543C48.1436 8.65433 43.2859 10.9544 35.402 12.2408L34.765 8.65433Z" fill="white"/>
<path d="M72.4511 12.0676C70.3842 12.0676 68.7087 10.3921 68.7087 8.3252V8.3252H94.4921C96.7013 8.3252 98.4921 10.1161 98.4921 12.3252V17.6422H72.3719V19.4745H95.2673C97.3342 19.4745 99.0098 21.15 99.0098 23.2169V23.2169H85.9496V25.4779H122.258C124.324 25.4779 126 27.1535 126 29.2203V29.2203H71.376C69.3092 29.2203 67.6336 27.5448 67.6336 25.4779V25.4779H81.9679V23.2169H72.3902C70.181 23.2169 68.3902 21.426 68.3902 19.2169V13.8998H94.5104V12.0676H72.4511Z" fill="white"/>
</svg>
