<svg width="20" height="20" viewBox="0 0 20 20" fill="none" xmlns="http://www.w3.org/2000/svg">
<path d="M14.86 14.455C13.4614 15.4323 11.7584 15.9736 10 16C4.27273 16 1 10 1 10C2.01773 8.26143 3.42929 6.74247 5.14 5.54502M8.28182 4.18002C8.845 4.05918 9.4216 3.99877 10 4.00002C15.7273 4.00002 19 10 19 10C18.5033 10.8517 17.911 11.6536 17.2327 12.3925M11.7345 11.59C11.5098 11.8111 11.2388 11.9884 10.9378 12.1113C10.6367 12.2343 10.3116 12.3005 9.98207 12.3058C9.6525 12.3111 9.32513 12.2555 9.0195 12.1424C8.71387 12.0292 8.43623 11.8608 8.20315 11.6471C7.97007 11.4335 7.78632 11.179 7.66287 10.8988C7.53942 10.6186 7.47879 10.3185 7.48461 10.0164C7.49042 9.71433 7.56256 9.41639 7.69672 9.1404C7.83087 8.8644 8.0243 8.616 8.26545 8.41001" stroke="#949494" stroke-width="1.5" stroke-linecap="round" stroke-linejoin="round"/>
<path d="M1 2L19 18" stroke="#949494" stroke-width="1.5" stroke-linecap="round" stroke-linejoin="round"/>
</svg>
