<svg width="12" height="13" viewBox="0 0 12 13" fill="none" xmlns="http://www.w3.org/2000/svg">
<g clip-path="url(#clip0_2259_7364)">
<path d="M5.5 2.5H2C1.73478 2.5 1.48043 2.60536 1.29289 2.79289C1.10536 2.98043 1 3.23478 1 3.5V10.5C1 10.7652 1.10536 11.0196 1.29289 11.2071C1.48043 11.3946 1.73478 11.5 2 11.5H9C9.26522 11.5 9.51957 11.3946 9.70711 11.2071C9.89464 11.0196 10 10.7652 10 10.5V7" stroke="#949494" stroke-linecap="round" stroke-linejoin="round"/>
<path d="M9.25 1.75011C9.44891 1.5512 9.7187 1.43945 10 1.43945C10.2813 1.43945 10.5511 1.5512 10.75 1.75011C10.9489 1.94903 11.0607 2.21881 11.0607 2.50011C11.0607 2.78142 10.9489 3.0512 10.75 3.25011L6 8.00011L4 8.50011L4.5 6.50011L9.25 1.75011Z" stroke="#949494" stroke-linecap="round" stroke-linejoin="round"/>
</g>
<defs>
<clipPath id="clip0_2259_7364">
<rect width="12" height="12" fill="white" transform="translate(0 0.5)"/>
</clipPath>
</defs>
</svg>
