<svg width="24" height="25" viewBox="0 0 24 25" fill="none" xmlns="http://www.w3.org/2000/svg">
<path d="M17 3.5003C17.2626 3.23766 17.5744 3.02932 17.9176 2.88718C18.2608 2.74503 18.6286 2.67188 19 2.67188C19.3714 2.67187 19.7392 2.74503 20.0824 2.88718C20.4256 3.02932 20.7374 3.23766 21 3.5003C21.2626 3.76295 21.471 4.07475 21.6131 4.41791C21.7553 4.76107 21.8284 5.12887 21.8284 5.5003C21.8284 5.87174 21.7553 6.23953 21.6131 6.58269C21.471 6.92585 21.2626 7.23766 21 7.5003L7.5 21.0003L2 22.5003L3.5 17.0003L17 3.5003Z" stroke="#949494" stroke-width="2" stroke-linecap="round" stroke-linejoin="round"/>
</svg>
