<svg width="17" height="16" viewBox="0 0 17 16" fill="none" xmlns="http://www.w3.org/2000/svg">
<path d="M14.3936 3.07357C14.0531 2.73291 13.6488 2.46267 13.2038 2.2783C12.7588 2.09392 12.2819 1.99902 11.8002 1.99902C11.3186 1.99902 10.8416 2.09392 10.3967 2.2783C9.9517 2.46267 9.54741 2.73291 9.20691 3.07357L8.50024 3.78024L7.79357 3.07357C7.10578 2.38578 6.17293 1.99938 5.20024 1.99938C4.22755 1.99938 3.2947 2.38578 2.60691 3.07357C1.91911 3.76137 1.53271 4.69422 1.53271 5.66691C1.53271 6.6396 1.91911 7.57245 2.60691 8.26024L3.31358 8.96691L8.50024 14.1536L13.6869 8.96691L14.3936 8.26024C14.7342 7.91974 15.0045 7.51545 15.1889 7.07048C15.3732 6.6255 15.4681 6.14857 15.4681 5.66691C15.4681 5.18525 15.3732 4.70831 15.1889 4.26334C15.0045 3.81836 14.7342 3.41408 14.3936 3.07357Z" fill="#C8C8C8"/>
</svg>
