<svg width="23" height="22" viewBox="0 0 23 22" fill="none" xmlns="http://www.w3.org/2000/svg">
<path d="M20.3807 3.17974C19.8676 2.64721 19.2583 2.22477 18.5878 1.93656C17.9172 1.64834 17.1985 1.5 16.4727 1.5C15.7468 1.5 15.0281 1.64834 14.3576 1.93656C13.687 2.22477 13.0778 2.64721 12.5646 3.17974L11.4997 4.2844L10.4348 3.17974C9.39834 2.10458 7.99258 1.50056 6.52679 1.50056C5.06099 1.50056 3.65523 2.10458 2.61876 3.17974C1.58229 4.2549 1 5.71313 1 7.23364C1 8.75415 1.58229 10.2124 2.61876 11.2875L3.68367 12.3922L11.4997 20.5L19.3158 12.3922L20.3807 11.2875C20.8941 10.7553 21.3013 10.1233 21.5791 9.4277C21.857 8.73212 22 7.98657 22 7.23364C22 6.48071 21.857 5.73516 21.5791 5.03958C21.3013 4.34399 20.8941 3.71201 20.3807 3.17974Z" stroke="#C8C8C8" stroke-width="1.5" stroke-linecap="round" stroke-linejoin="round"/>
</svg>
