<?xml version="1.0" standalone="no"?>
<!DOCTYPE svg PUBLIC "-//W3C//DTD SVG 20010904//EN"
 "http://www.w3.org/TR/2001/REC-SVG-20010904/DTD/svg10.dtd">
<svg version="1.0" xmlns="http://www.w3.org/2000/svg"
 width="699.000000pt" height="699.000000pt" viewBox="0 0 699.000000 699.000000"
 preserveAspectRatio="xMidYMid meet">
<metadata>
Created by potrace 1.14, written by Peter Selinger 2001-2017
</metadata>
<g transform="translate(0.000000,699.000000) scale(0.100000,-0.100000)"
fill="#000000" stroke="none">
<path d="M992 6329 c2 -7 10 -15 17 -17 8 -3 12 1 9 9 -2 7 -10 15 -17 17 -8
3 -12 -1 -9 -9z"/>
<path d="M867 6303 c-13 -12 -7 -21 18 -27 14 -4 25 -11 25 -17 0 -18 -30 -22
-48 -6 -21 19 -72 33 -72 19 0 -5 7 -15 15 -22 19 -16 10 -30 -19 -30 -28 0
-71 -44 -63 -64 4 -9 15 -16 26 -16 10 0 22 -7 25 -16 9 -23 8 -24 -19 -24
-14 0 -25 -5 -25 -10 0 -12 41 -73 53 -78 4 -2 7 -7 7 -12 0 -12 -66 14 -89
34 -19 17 -21 18 -27 2 -4 -10 -2 -28 5 -42 8 -18 8 -31 1 -45 -9 -16 -7 -21
15 -29 32 -12 32 -28 0 -40 -17 -7 -25 -17 -25 -34 0 -14 -5 -28 -11 -31 -6
-4 -7 -19 -4 -36 4 -18 2 -36 -5 -44 -9 -11 -9 -15 -1 -15 6 0 14 -18 17 -40
6 -34 10 -40 25 -35 11 4 19 2 19 -5 0 -7 -9 -14 -20 -17 -37 -10 -19 -69 35
-115 19 -17 19 -19 2 -32 -25 -19 -12 -64 24 -85 27 -15 40 -41 20 -41 -5 0
-8 -15 -7 -32 1 -28 6 -33 29 -36 15 -2 27 -10 27 -17 0 -8 9 -19 20 -25 24
-13 25 -28 3 -52 -14 -16 -14 -22 -3 -43 12 -22 11 -28 -2 -41 -11 -12 -21
-13 -33 -6 -21 11 -72 -10 -97 -42 -15 -18 -15 -23 -2 -37 17 -19 9 -45 -17
-60 -11 -5 -19 -18 -19 -29 0 -11 -11 -27 -25 -36 -30 -19 -28 -24 17 -33 l32
-7 -36 -21 c-22 -13 -45 -38 -57 -64 -24 -49 -21 -57 15 -41 16 8 31 9 41 3
14 -7 13 -10 -6 -20 -19 -11 -20 -14 -6 -27 19 -20 19 -34 0 -34 -8 0 -15 -4
-15 -10 0 -6 28 -10 65 -10 60 0 65 -2 62 -21 -1 -13 6 -26 18 -33 11 -6 37
-26 58 -44 41 -35 84 -41 79 -10 -2 14 2 15 30 6 18 -6 41 -15 50 -19 22 -11
78 -12 78 -1 0 4 -21 14 -47 21 -63 18 -71 26 -70 66 1 27 5 34 20 32 11 -1
22 4 24 11 3 6 -2 12 -11 12 -9 0 -16 5 -16 10 0 6 -7 10 -15 10 -8 0 -15 6
-15 13 0 7 -8 28 -18 48 l-18 34 33 -3 c46 -6 43 18 -7 68 -45 45 -48 57 -22
76 16 13 16 15 0 25 -19 11 -25 39 -8 39 19 0 10 18 -29 58 -22 22 -37 43 -34
46 15 15 44 4 53 -19 6 -15 20 -26 37 -30 55 -11 128 -37 146 -53 15 -13 22
-14 37 -4 15 9 25 9 45 0 14 -6 25 -15 25 -19 0 -4 14 -7 30 -7 36 1 43 -4 35
-24 -4 -10 -14 -14 -26 -11 -10 3 -19 0 -19 -6 0 -6 8 -11 18 -11 10 0 22 -3
25 -7 13 -12 -15 -33 -44 -33 -20 0 -27 -4 -23 -14 3 -8 -4 -16 -18 -19 -22
-6 -22 -7 -3 -21 13 -9 24 -11 32 -5 7 7 13 6 18 -1 7 -11 -2 -30 -15 -30 -8
0 -70 -58 -70 -66 0 -2 9 -4 19 -4 11 0 23 -5 27 -11 4 -8 9 -7 15 2 4 7 10
11 13 8 3 -3 -8 -21 -24 -41 -24 -29 -27 -37 -15 -42 25 -9 17 -32 -20 -52
-31 -17 -34 -20 -19 -31 10 -7 13 -17 8 -25 -5 -7 -9 -20 -11 -28 -3 -20 -41
-50 -64 -50 -10 0 -19 -7 -19 -15 0 -9 9 -15 25 -15 33 0 31 -9 -14 -47 -32
-28 -49 -35 -91 -42 -2 -1 1 -6 8 -13 16 -16 15 -28 -2 -28 -9 0 -12 -8 -8
-25 3 -20 7 -23 18 -14 16 13 34 4 34 -18 0 -9 3 -13 6 -10 4 3 16 0 28 -8 22
-16 86 -21 86 -6 0 4 12 20 27 35 21 21 32 26 55 21 42 -10 117 45 118 85 0
12 -2 12 -9 1 -5 -7 -11 -9 -14 -4 -8 13 9 37 21 29 16 -10 37 23 24 36 -17
17 -15 23 16 60 32 38 68 115 58 125 -3 4 -20 -4 -37 -16 -40 -30 -53 -16 -14
14 17 13 42 37 58 52 22 23 24 29 11 31 -9 2 -21 -1 -27 -7 -14 -14 -27 -14
-27 -1 0 6 5 10 11 10 6 0 17 7 26 15 8 8 20 12 26 8 7 -4 7 -1 -1 9 -11 14
-10 18 5 26 15 9 16 13 4 36 -13 23 -12 27 10 45 13 11 29 20 35 21 17 0 37
52 23 60 -12 8 43 64 83 84 14 7 23 21 23 36 0 19 11 30 49 51 59 30 68 46 30
51 -20 2 -30 10 -35 31 -8 29 7 37 29 15 10 -10 17 -10 33 0 18 12 23 11 36
-7 20 -29 36 -26 31 4 -4 21 -1 25 18 25 28 0 30 7 8 32 -16 16 -15 21 4 65
23 54 33 61 55 38 27 -27 38 -16 16 15 -29 38 -19 47 28 27 49 -21 103 -31
103 -20 0 5 -15 14 -33 21 -18 6 -48 25 -67 42 -35 31 -35 31 -8 25 36 -7 68
13 68 43 0 18 4 23 16 18 9 -4 23 -1 30 5 11 9 20 7 39 -5 14 -9 25 -12 25 -6
0 5 5 10 10 10 6 0 10 -11 10 -25 0 -14 6 -25 13 -25 8 0 33 -14 56 -31 24
-17 49 -28 56 -25 19 7 52 -20 59 -48 6 -26 61 -53 71 -35 7 10 -18 42 -86
116 -21 23 -39 45 -39 48 0 4 -16 26 -35 49 -23 29 -36 56 -40 86 -5 41 -4 43
7 20 7 -14 15 -27 18 -30 3 -3 21 -30 39 -60 32 -52 194 -220 212 -220 5 0 9
14 9 31 0 24 4 30 15 25 23 -8 19 30 -5 54 -23 23 -26 46 -6 53 14 6 56 -43
56 -65 0 -8 6 -7 17 5 16 15 16 18 0 35 -18 20 -22 42 -8 42 19 0 71 -35 71
-48 0 -20 29 -72 40 -72 32 0 -7 83 -59 126 -21 18 -23 24 -13 36 16 20 3 31
-16 12 -10 -11 -18 -12 -25 -5 -8 8 -4 17 11 31 12 12 22 30 22 42 0 18 2 19
17 7 9 -8 23 -30 31 -49 7 -19 22 -44 32 -55 10 -11 22 -35 27 -54 11 -44 23
-47 47 -15 14 19 15 28 7 34 -14 8 -41 57 -41 74 0 6 7 3 14 -6 18 -25 46 -23
46 3 0 11 5 17 10 14 14 -9 12 -42 -2 -48 -10 -3 -10 -9 0 -26 6 -11 12 -28
12 -36 0 -9 12 -21 26 -27 22 -11 28 -10 40 7 8 10 14 27 14 38 0 34 18 56 42
50 13 -3 29 -10 36 -16 8 -6 12 -6 12 2 0 6 11 11 26 11 19 0 28 7 35 30 11
29 11 29 31 10 22 -20 49 -17 29 3 -13 13 -15 47 -2 47 13 0 32 -26 40 -57 8
-32 24 -34 29 -3 8 51 52 -1 52 -61 0 -25 3 -29 19 -24 29 9 36 -13 11 -33
-18 -15 -23 -31 -26 -92 -8 -137 -14 -180 -29 -210 -8 -16 -15 -36 -15 -44 0
-8 -5 -18 -11 -22 -9 -5 -10 1 -5 20 6 25 5 27 -16 20 -13 -3 -25 -9 -28 -13
-3 -3 -22 -19 -43 -34 -29 -22 -41 -26 -51 -18 -10 9 -22 7 -47 -8 -22 -13
-50 -19 -79 -18 l-45 2 2 40 c1 22 4 54 7 70 8 37 -3 55 -35 59 -14 1 -30 6
-37 10 -17 10 -46 0 -67 -24 -14 -16 -15 -22 -5 -35 7 -8 10 -22 6 -30 -5 -13
-8 -13 -26 2 -11 10 -20 23 -20 30 0 7 -5 13 -11 13 -11 0 -8 -20 7 -73 5 -15
2 -18 -14 -13 -11 4 -23 2 -27 -4 -3 -5 -17 -10 -30 -10 -13 0 -25 -5 -27 -11
-3 -9 -10 -9 -27 0 -21 12 -36 9 -36 -7 -1 -18 -38 -60 -57 -65 -14 -4 -19
-11 -14 -22 7 -19 -19 -32 -37 -17 -6 5 -34 9 -62 8 -41 -1 -49 -5 -47 -19 2
-12 -4 -17 -21 -17 -13 0 -32 -9 -42 -20 -9 -10 -37 -27 -60 -36 -28 -10 -42
-21 -38 -29 3 -9 -6 -15 -29 -17 -24 -2 -33 -8 -32 -20 1 -13 -10 -21 -39 -29
-22 -6 -68 -29 -101 -51 -34 -22 -72 -45 -86 -50 -83 -31 -102 -44 -121 -82
-10 -22 -19 -48 -19 -57 0 -9 -24 -42 -53 -71 -32 -33 -58 -71 -67 -97 -8 -24
-22 -48 -32 -55 -10 -6 -18 -19 -18 -28 0 -10 -4 -18 -10 -18 -5 0 -10 -5 -10
-11 0 -6 7 -9 15 -5 9 3 15 0 15 -9 0 -8 -4 -15 -10 -15 -22 0 -8 -18 18 -23
71 -14 256 -62 287 -76 38 -16 70 -29 90 -37 19 -7 19 -8 -4 -12 -13 -2 -26 0
-30 5 -3 5 -26 15 -51 22 -25 7 -54 17 -65 22 -93 42 -326 74 -363 50 -17 -11
7 -21 49 -21 17 0 36 -8 46 -20 10 -11 23 -20 30 -20 7 0 13 -4 13 -10 0 -5
-24 -10 -53 -10 -29 0 -58 -5 -65 -12 -10 -10 -19 -8 -42 5 -32 20 -51 15 -84
-22 -19 -21 -19 -22 0 -36 10 -8 34 -15 53 -15 19 0 42 -6 50 -13 9 -8 68 -29
131 -47 63 -18 140 -41 171 -51 30 -11 65 -19 77 -19 11 0 24 -4 27 -10 3 -5
19 -10 35 -10 16 0 32 -4 35 -10 3 -5 14 -10 24 -10 10 0 32 -7 47 -15 16 -8
36 -15 44 -15 8 0 56 -13 105 -29 95 -30 185 -46 185 -32 0 11 -29 34 -60 48
-14 7 -77 37 -141 67 -64 31 -121 56 -126 56 -13 0 -277 106 -326 131 -22 10
-47 19 -58 19 -10 0 -19 5 -19 10 0 13 22 13 57 -1 47 -19 67 -26 103 -39 19
-7 44 -16 55 -20 153 -60 212 -85 220 -92 5 -4 17 -8 27 -8 10 0 18 -4 18 -10
0 -5 6 -10 14 -10 8 0 31 -9 53 -19 84 -42 175 -81 187 -81 6 0 20 6 31 13 22
17 14 62 -12 70 -10 4 -37 18 -61 32 -23 14 -49 25 -57 25 -8 0 -15 5 -15 10
0 6 -10 15 -22 20 -13 5 -17 9 -9 9 17 1 116 -45 151 -70 37 -26 103 -14 105
21 1 13 7 26 12 27 27 9 91 66 119 105 17 23 44 50 60 58 16 8 31 18 34 21 8
10 53 14 66 6 7 -4 17 0 24 8 7 8 18 15 25 15 7 0 18 6 24 14 13 16 61 28 61
15 0 -4 13 -1 28 8 25 14 31 14 57 2 36 -18 35 -40 -6 -86 -16 -18 -35 -46
-43 -61 -8 -15 -37 -49 -65 -75 -77 -73 -98 -106 -112 -175 -11 -50 -11 -79 0
-150 14 -97 39 -183 59 -195 6 -4 12 -14 12 -21 0 -8 11 -21 25 -30 20 -13 23
-23 21 -53 -2 -20 -13 -48 -25 -61 -24 -27 -28 -62 -6 -62 8 0 15 -7 15 -15 0
-21 -12 -19 -33 5 -22 26 -31 25 -51 -5 -9 -14 -21 -25 -26 -25 -5 0 -24 -16
-43 -35 -19 -19 -42 -35 -51 -35 -18 0 -21 -7 -30 -56 -4 -25 1 -38 24 -65 34
-37 37 -47 15 -56 -14 -5 -14 -8 0 -30 15 -23 15 -26 -2 -38 -17 -13 -17 -14
1 -28 16 -12 17 -16 5 -35 -11 -17 -11 -24 -1 -34 6 -6 12 -19 12 -28 0 -9 9
-35 20 -58 11 -22 20 -54 20 -70 0 -16 6 -35 14 -41 7 -6 16 -30 19 -54 4 -23
25 -80 47 -126 28 -56 40 -91 36 -106 -4 -15 0 -30 10 -40 15 -14 15 -20 3
-42 -12 -22 -11 -27 5 -39 13 -9 16 -19 11 -31 -10 -23 -7 -44 11 -64 8 -8 14
-27 14 -42 0 -14 5 -29 10 -32 6 -3 10 -14 10 -23 0 -9 18 -37 41 -62 22 -24
45 -53 51 -63 6 -12 17 -17 29 -14 16 4 18 1 13 -18 -4 -18 2 -27 31 -45 20
-12 34 -27 32 -34 -6 -18 -37 -19 -57 -1 -12 11 -20 13 -25 6 -9 -15 -35 -14
-35 2 -1 22 -49 67 -73 67 -34 0 -47 19 -47 66 0 37 -3 43 -22 46 -13 2 -21 6
-18 9 3 3 -1 14 -9 23 -11 13 -11 20 -3 28 7 7 12 18 12 26 0 12 -3 12 -15 2
-20 -16 -28 -8 -27 27 0 17 -11 39 -26 56 -19 20 -26 37 -24 57 3 25 0 30 -18
30 -19 0 -21 4 -16 25 5 18 2 27 -10 32 -19 7 -38 50 -35 79 1 15 -15 37 -53
70 -49 44 -53 50 -40 65 13 15 12 18 -11 33 -19 12 -24 22 -20 39 4 15 -1 32
-15 50 -14 18 -19 34 -15 48 4 12 3 31 -3 43 -6 11 -15 41 -22 66 -14 54 -65
117 -100 122 -16 2 -25 9 -25 21 0 21 -37 40 -98 51 -36 7 -107 58 -107 77 0
5 10 13 23 18 12 5 30 19 39 30 13 15 29 21 58 21 22 0 40 5 40 10 0 15 32 12
54 -5 11 -8 29 -15 40 -15 29 0 29 56 -1 88 -12 13 -25 37 -28 53 -4 17 -18
42 -33 56 -24 24 -29 25 -101 19 -42 -3 -91 -9 -108 -12 -18 -4 -33 -2 -33 3
0 11 62 28 158 44 84 14 109 33 67 49 -16 6 -47 9 -69 8 -59 -4 -56 16 3 22
58 6 69 14 55 38 -14 21 -60 28 -81 11 -12 -11 -17 -10 -27 3 -10 13 -41 16
-206 19 -107 1 -240 -3 -295 -8 -55 -6 -102 -9 -104 -7 -14 13 28 28 101 35
106 11 384 31 468 34 116 4 155 28 79 48 l-34 9 53 20 c28 12 52 27 52 34 0
17 -32 37 -87 54 -32 10 -43 18 -43 34 0 15 -3 17 -12 8 -15 -15 -64 -16 -73
-2 -4 6 5 10 19 10 14 0 26 5 26 10 0 6 -11 10 -24 10 -14 0 -28 5 -31 10 -3
6 -15 10 -26 10 -11 0 -55 12 -97 26 -42 14 -95 29 -117 34 -22 5 -78 22 -125
38 -172 61 -288 93 -341 96 -30 1 -61 6 -67 10 -18 11 -41 -11 -35 -34 3 -11
14 -20 24 -20 11 0 19 -5 19 -11 0 -7 -11 -8 -30 -4 -26 6 -30 4 -30 -15 0
-13 8 -24 20 -27 39 -10 20 -23 -34 -23 -38 0 -56 4 -59 14 -4 9 2 17 14 21
12 4 19 15 19 31 0 13 5 24 10 24 6 0 10 5 10 10 0 6 -9 10 -20 10 -11 0 -20
6 -20 14 0 42 -71 28 -100 -20 -25 -40 -21 -51 25 -60 19 -3 35 -10 35 -15 0
-12 -35 -29 -59 -29 -12 0 -21 -4 -21 -10 0 -5 7 -10 16 -10 13 0 15 -10 12
-55 -2 -40 1 -55 10 -55 23 0 24 -26 3 -64 -12 -20 -21 -39 -21 -41 0 -12 25
-2 66 25 24 17 44 28 44 24 0 -11 -50 -54 -63 -54 -17 -1 -47 -25 -47 -39 0
-16 10 -14 55 14 52 32 65 31 65 -3 0 -33 -27 -51 -80 -55 -19 -1 -42 -9 -51
-17 -9 -8 -24 -21 -35 -27 -16 -11 -7 -11 46 -6 36 4 81 7 100 5 19 -1 51 -2
70 -3 33 0 34 -1 16 -15 -23 -17 -33 -18 -41 -4 -4 6 -17 3 -35 -10 -26 -19
-27 -22 -17 -50 9 -24 9 -33 -1 -39 -16 -10 -5 -41 16 -41 8 0 44 13 79 30 67
32 97 38 91 18 -3 -7 -19 -15 -37 -18 -21 -3 -36 -13 -44 -30 -7 -14 -18 -26
-25 -26 -36 -4 -37 -4 -22 -13 8 -6 18 -8 22 -5 4 3 17 0 29 -7 21 -11 21 -12
-11 -32 -29 -18 -30 -22 -16 -32 23 -17 20 -22 -14 -28 -40 -9 -38 -27 3 -27
18 0 38 -5 45 -12 13 -13 92 6 92 22 0 6 9 10 21 10 15 0 19 -4 15 -16 -4 -9
-1 -23 5 -30 9 -11 8 -14 -2 -14 -20 0 -101 -41 -132 -67 -16 -13 -24 -23 -18
-23 5 0 13 5 16 10 8 13 55 13 55 0 0 -6 -11 -15 -25 -20 -30 -11 -33 -30 -5
-30 11 0 20 -6 20 -14 0 -10 11 -12 44 -9 48 6 69 -10 36 -27 -28 -15 -25 -30
5 -30 37 0 35 -38 -2 -42 -17 -2 -29 -10 -31 -20 -2 -13 1 -16 12 -12 11 4 16
1 16 -10 0 -9 -4 -16 -10 -16 -5 0 -10 -13 -10 -29 0 -31 -16 -43 -49 -34 -17
4 -32 -5 -63 -38 -22 -24 -45 -57 -50 -72 -8 -23 -13 -26 -25 -15 -33 27 -35
-32 -3 -91 10 -19 8 -26 -15 -49 -15 -14 -38 -26 -53 -27 -21 0 -26 -5 -24
-20 2 -11 6 -35 9 -53 4 -24 9 -32 20 -28 8 3 17 6 19 6 2 0 4 9 4 20 0 11 5
20 10 20 15 0 12 -31 -5 -64 -14 -26 -14 -31 1 -47 9 -10 30 -21 48 -25 17 -3
44 -13 60 -21 l30 -15 -28 -12 c-23 -9 -26 -14 -15 -23 16 -12 103 -43 123
-43 20 0 76 -30 76 -41 0 -16 -29 -10 -39 8 -8 15 -12 16 -35 4 -21 -11 -33
-12 -65 -3 -47 14 -51 15 -51 2 0 -5 19 -18 41 -28 34 -16 48 -17 75 -9 28 8
37 7 52 -6 25 -23 42 -21 42 3 0 12 7 20 18 20 9 0 30 9 46 19 39 26 51 17 20
-14 -32 -32 -30 -44 6 -58 33 -13 38 -22 15 -31 -9 -3 -23 3 -32 14 -22 26
-53 26 -60 0 -5 -20 -43 -29 -43 -10 0 18 -40 32 -56 19 -20 -16 -18 -29 5
-29 30 0 51 -11 51 -26 0 -8 -4 -14 -8 -14 -9 0 -12 -17 -12 -56 0 -12 -8 -28
-17 -35 -14 -13 -13 -15 13 -19 20 -4 29 -11 28 -23 -2 -15 7 -17 60 -17 67 1
297 -15 281 -19 -5 -2 -39 -5 -75 -7 -103 -5 -170 -15 -170 -24 0 -4 15 -13
33 -20 l32 -12 -44 -12 c-68 -17 -65 -36 6 -36 32 0 74 4 94 9 39 9 139 3 139
-8 0 -12 -67 -32 -84 -25 -9 3 -16 2 -16 -4 0 -18 102 -36 203 -35 67 0 97 -4
94 -11 -2 -6 -19 -13 -38 -16 l-34 -5 27 -19 c25 -16 30 -17 50 -4 38 24 78
31 97 15 9 -8 29 -18 46 -21 52 -13 2 -29 -69 -23 -47 4 -65 2 -78 -10 -16
-15 -20 -15 -36 0 -23 21 -41 22 -49 1 -4 -11 -17 -15 -42 -13 -20 1 -51 -1
-70 -6 -27 -6 -37 -4 -47 10 -8 11 -19 15 -30 11 -10 -4 -21 -1 -25 5 -5 9
-18 9 -53 -1 -56 -15 -60 -30 -8 -30 l37 -1 -39 -19 c-22 -11 -48 -20 -58 -20
-26 0 -22 -17 6 -24 29 -7 54 0 81 25 12 10 35 22 53 25 25 5 32 3 32 -10 0
-10 -8 -16 -23 -16 -13 0 -32 -9 -42 -20 -16 -18 -16 -20 -1 -26 9 -3 16 -14
16 -24 0 -21 29 -35 44 -20 5 5 23 10 38 10 42 0 35 -25 -12 -44 -22 -9 -40
-20 -40 -26 0 -5 -9 -10 -19 -10 -25 0 -37 -18 -17 -26 27 -11 7 -23 -28 -17
-20 3 -36 1 -41 -7 -12 -19 1 -23 80 -22 60 0 80 5 101 21 31 24 47 26 63 7 9
-11 7 -15 -11 -20 -13 -3 -33 -6 -45 -6 -16 0 -23 -6 -23 -18 0 -14 -14 -23
-60 -35 -33 -10 -68 -17 -78 -17 -11 0 -35 -11 -54 -23 -19 -13 -48 -27 -64
-31 l-29 -7 30 25 c17 14 33 25 36 26 4 0 10 7 13 16 5 14 1 15 -29 10 -24 -5
-42 -2 -56 7 -19 14 -19 15 -2 22 10 4 29 9 43 12 34 6 63 34 50 47 -6 6 -17
6 -32 -1 -23 -12 -69 -20 -165 -29 -39 -4 -58 -1 -79 12 -20 14 -48 18 -113
19 -76 0 -92 3 -135 29 -37 22 -45 31 -35 38 10 6 6 7 -11 2 -29 -8 -70 -33
-70 -43 1 -13 41 -54 47 -48 3 4 0 13 -7 22 -19 23 -4 30 28 15 36 -18 108
-69 140 -99 21 -19 32 -22 71 -18 25 3 47 10 49 16 4 13 29 15 37 2 3 -5 -8
-18 -25 -27 -36 -22 -38 -41 -7 -54 17 -7 7 -9 -40 -9 -61 -1 -83 -13 -43 -24
26 -7 26 -37 0 -37 -11 0 -20 5 -20 10 0 6 -8 10 -18 10 -18 0 -59 -57 -48
-67 19 -20 166 -29 197 -13 37 21 18 30 -63 31 -46 1 -71 4 -55 6 15 2 27 9
27 14 0 17 102 11 115 -7 8 -12 20 -15 38 -10 36 9 34 25 -3 33 -45 9 -30 29
19 25 23 -2 54 3 70 11 17 8 32 13 35 10 9 -10 -24 -50 -51 -62 -22 -10 -24
-14 -12 -22 22 -14 49 -10 49 7 0 12 6 15 25 10 21 -5 25 -3 25 14 0 17 3 19
19 10 11 -5 53 -10 95 -10 42 0 78 -5 81 -11 4 -6 13 -8 21 -5 8 3 14 1 14 -4
0 -6 -17 -8 -42 -4 -37 4 -40 4 -23 -7 11 -7 22 -16 25 -20 3 -4 19 -9 35 -11
26 -4 27 -5 11 -13 -11 -5 -26 -4 -37 3 -30 19 -42 17 -106 -16 -13 -7 -28
-12 -34 -12 -7 0 -17 -7 -23 -15 -8 -10 -15 -12 -26 -5 -13 8 -11 11 8 16 27
8 29 24 3 24 -11 0 -23 5 -27 11 -5 8 -10 6 -16 -6 -8 -12 -18 -15 -42 -11
-31 6 -59 -4 -56 -20 0 -5 -8 -10 -19 -12 -22 -4 -61 -51 -61 -75 0 -21 81
-30 115 -13 26 14 65 11 65 -4 0 -5 -12 -17 -27 -28 -16 -11 -25 -24 -20 -28
11 -11 58 18 68 42 8 21 45 41 56 31 5 -6 -52 -84 -77 -104 -8 -7 -33 -13 -55
-13 -71 0 -80 -1 -107 -12 -15 -6 -26 -14 -23 -18 3 -5 -12 -11 -33 -15 -67
-11 -72 -26 -7 -19 34 4 64 13 68 20 5 10 30 14 75 14 38 0 91 9 122 19 48 16
135 33 157 32 5 -1 8 -15 8 -32 0 -32 -24 -51 -83 -63 -15 -4 -41 -18 -57 -32
l-30 -25 43 6 c41 7 42 6 42 -23 0 -36 -21 -55 -59 -55 -23 0 -27 -4 -23 -20
4 -16 1 -18 -18 -12 -16 5 -20 4 -15 -4 4 -7 -14 -33 -42 -62 -26 -27 -51 -57
-54 -66 -3 -10 -17 -20 -30 -23 -18 -5 -25 -15 -30 -43 -3 -21 -15 -47 -26
-60 -12 -12 -23 -31 -25 -42 -3 -17 -12 -20 -59 -21 -62 -2 -117 -23 -167 -66
-18 -15 -37 -28 -42 -28 -6 0 -10 -9 -10 -20 0 -20 7 -20 883 -20 l883 0 9 33
c6 17 14 30 20 27 5 -3 9 -9 7 -14 -1 -4 0 -17 3 -27 6 -18 15 -19 112 -17
l106 3 34 45 c18 25 38 56 45 70 l12 25 4 -29 c3 -21 -4 -36 -27 -60 -17 -18
-31 -37 -31 -44 0 -15 96 -17 105 -2 3 5 20 19 37 32 28 19 31 20 25 4 -14
-35 19 -45 147 -46 141 0 145 3 146 97 0 52 4 66 26 90 17 18 24 35 21 51 -3
17 -1 22 9 18 9 -4 14 2 14 15 0 12 -5 19 -12 16 -26 -8 -47 203 -28 278 11
41 13 33 15 -63 1 -45 5 -85 8 -89 4 -3 7 -16 7 -27 0 -12 7 -29 14 -39 12
-15 15 -16 26 -2 7 8 20 14 29 13 12 -2 16 5 16 33 0 32 2 35 18 25 22 -14 22
-51 -2 -75 -12 -12 -17 -28 -14 -43 4 -19 0 -26 -16 -31 -15 -3 -20 -12 -19
-29 1 -13 -8 -38 -20 -55 -23 -33 -40 -70 -52 -118 -4 -16 -11 -38 -15 -47 -7
-17 12 -18 315 -18 312 0 323 1 307 18 -35 39 -5 45 32 7 l23 -25 1169 0
c1032 0 1169 2 1169 15 0 8 5 15 11 15 6 0 9 -7 5 -15 -5 -13 19 -15 180 -15
107 0 183 4 180 9 -3 5 -24 18 -47 30 -22 12 -52 32 -67 46 -15 14 -30 25 -35
25 -4 0 -5 4 -2 10 4 6 17 4 35 -5 21 -11 36 -12 54 -5 14 5 33 7 41 4 8 -4
22 -3 32 0 14 6 14 8 -3 21 -10 8 -29 15 -40 15 -12 0 -25 7 -28 16 -5 12 -14
15 -36 11 -34 -7 -50 8 -18 17 31 8 15 20 -54 41 -32 10 -58 22 -58 26 0 5 -9
9 -19 9 -33 0 -51 11 -51 31 0 14 -7 19 -25 19 -28 0 -33 15 -9 28 26 14 9 50
-20 45 -13 -3 -27 0 -30 6 -5 8 -13 8 -28 0 -15 -8 -32 -8 -65 0 -57 15 -67 8
-59 -40 6 -40 -2 -53 -28 -43 -11 4 -14 13 -10 29 8 31 -8 38 -42 20 -44 -23
-51 -18 -21 13 39 40 37 63 -3 42 -22 -12 -69 3 -87 27 -11 15 -22 15 -85 5
-65 -10 -104 -7 -70 5 7 3 22 14 33 26 18 20 20 20 32 3 13 -18 15 -18 42 0
37 24 75 59 75 69 0 4 -10 4 -22 0 -13 -3 -39 -6 -59 -5 -21 0 -43 -6 -52 -15
-9 -8 -24 -15 -35 -15 -11 0 -31 -9 -46 -21 -26 -21 -46 -18 -46 6 0 7 7 15
15 19 8 3 15 10 15 16 0 16 -27 12 -34 -6 -3 -8 -10 -13 -15 -10 -5 3 -14 -1
-21 -9 -15 -18 -30 -10 -30 16 0 16 -5 19 -20 14 -16 -5 -23 0 -35 28 -8 19
-27 45 -42 57 -16 12 -30 31 -33 43 -4 14 -14 22 -27 22 -27 0 -37 10 -29 30
5 14 8 14 29 0 22 -14 24 -13 43 13 11 15 23 35 27 45 8 21 30 22 48 1 11 -14
17 -12 48 21 20 19 52 49 71 65 25 22 30 30 17 30 -9 0 -17 4 -17 9 0 13 27
21 72 21 32 0 39 3 36 18 -2 11 -13 17 -30 17 -14 0 -30 4 -35 9 -12 13 90 -2
131 -19 54 -23 63 -18 26 15 -28 25 -30 30 -14 30 10 0 40 -7 65 -16 33 -12
59 -15 95 -9 46 6 47 8 29 22 -11 8 -31 12 -46 9 -14 -2 -43 0 -65 5 -105 27
-137 30 -187 18 -44 -10 -51 -10 -59 5 -5 9 -22 16 -38 16 -16 0 -31 4 -35 10
-3 6 21 8 64 7 88 -3 102 9 46 38 -6 3 -5 7 3 11 7 3 18 17 23 31 6 17 14 23
25 19 9 -4 22 -2 28 3 6 5 60 12 121 16 60 3 111 8 113 10 9 8 -35 45 -53 45
-12 0 -26 5 -32 11 -9 9 -18 8 -36 -4 -13 -8 -49 -18 -79 -20 -30 -3 -64 -9
-74 -15 -10 -5 -33 -16 -49 -25 -21 -10 -41 -13 -64 -8 l-34 6 54 14 c30 7 71
24 91 37 21 13 46 24 57 24 11 0 23 4 26 10 3 5 19 10 35 10 16 0 42 11 58 25
17 14 42 25 60 25 16 0 40 9 53 19 14 10 35 21 49 23 27 3 40 28 15 28 -9 0
-40 -11 -68 -24 -93 -44 -174 -59 -163 -31 4 12 -3 15 -34 15 -40 0 -54 15
-25 26 28 11 15 21 -37 28 -35 5 -53 3 -58 -5 -5 -7 -18 -9 -35 -5 -21 5 -28
3 -32 -13 -3 -11 -15 -23 -27 -27 -11 -4 -26 -13 -32 -21 -6 -9 -20 -13 -35
-10 -23 4 -23 4 9 18 19 8 32 21 32 31 0 24 -21 23 -78 -6 -48 -23 -142 -42
-142 -28 0 17 25 32 53 32 37 0 68 17 61 34 -4 10 2 12 23 8 l28 -5 -30 24
c-16 14 -42 30 -57 37 -30 13 -37 32 -12 32 8 0 22 7 30 15 9 8 27 15 42 15
15 1 38 7 52 15 14 8 35 14 48 15 12 0 25 7 28 15 4 8 15 15 26 15 14 0 18 -5
14 -15 -5 -13 -2 -14 16 -4 l21 11 -24 19 c-18 14 -33 18 -61 13 -30 -4 -38
-2 -38 9 0 9 6 18 13 20 6 3 2 6 -10 6 -12 1 -34 6 -50 13 l-28 11 40 9 c22 5
48 10 58 11 28 2 15 32 -16 35 -15 2 -27 7 -27 12 0 13 38 32 50 25 5 -3 11
-1 15 5 3 5 -2 10 -12 10 -11 0 -27 6 -37 13 -17 12 -14 14 24 15 28 1 50 -4
61 -14 10 -9 26 -14 36 -11 14 3 11 7 -14 17 -21 8 -33 19 -33 31 0 22 8 23
46 9 21 -8 31 -8 42 3 12 12 7 18 -33 41 -26 14 -54 26 -62 26 -10 0 -14 7
-10 20 6 23 -39 50 -83 50 -15 0 -33 6 -39 14 -17 20 25 28 73 15 21 -6 40 -8
44 -5 3 3 0 6 -6 6 -7 0 -12 6 -12 14 0 19 80 31 186 28 72 -1 82 1 86 16 5
16 -2 19 -51 19 -56 0 -101 15 -101 33 0 6 19 10 42 10 41 0 42 0 20 16 -12 8
-22 18 -22 22 0 8 196 -4 210 -13 5 -3 38 -3 72 1 l63 7 -61 17 c-33 10 -70
23 -82 29 -13 7 -28 9 -34 5 -6 -4 -16 0 -22 8 -6 9 -26 19 -44 22 -25 6 -32
4 -32 -8 0 -9 -5 -16 -11 -16 -5 0 -7 5 -4 10 3 6 1 10 -6 10 -7 0 -22 8 -33
18 -12 10 -36 25 -55 32 -29 12 -34 11 -43 -3 -5 -9 -21 -18 -36 -18 -17 -1
-20 -3 -9 -6 9 -2 17 -10 17 -16 0 -15 -67 -53 -76 -44 -4 3 5 11 19 18 16 7
23 17 20 26 -6 15 23 53 41 53 7 0 19 8 28 19 8 10 22 21 29 23 25 8 -2 27
-31 21 -27 -5 -30 -3 -30 20 0 24 -2 25 -42 20 -38 -4 -41 -3 -25 10 21 17 21
31 2 61 -13 19 -13 25 -2 35 11 8 17 5 27 -17 7 -15 15 -22 17 -15 2 6 -3 23
-12 36 -14 22 -14 25 0 37 12 10 19 10 27 2 16 -16 28 -15 28 3 0 8 -4 15 -10
15 -5 0 -17 25 -25 55 -16 53 -29 68 -37 44 -3 -9 -12 -9 -33 -2 -23 7 -31 17
-33 39 -2 16 -8 33 -13 39 -12 12 -12 45 0 45 5 0 14 -7 21 -15 16 -20 36 -19
44 1 9 22 8 24 -9 24 -16 0 -20 12 -8 23 8 9 53 -20 71 -45 14 -19 42 -25 42
-9 0 21 -13 41 -26 41 -8 0 -14 7 -14 15 0 8 -6 15 -13 15 -20 0 -80 31 -93
48 -10 13 -12 13 -21 -2 -8 -15 -11 -15 -28 4 -10 11 -24 20 -32 20 -8 0 -31
9 -53 20 -22 11 -50 20 -64 20 -14 0 -27 4 -30 9 -8 12 18 21 62 21 19 0 44 7
54 17 15 13 23 14 44 5 34 -16 55 -15 48 2 -6 16 -47 36 -75 36 -14 0 -21 9
-26 30 -3 17 -10 33 -14 36 -5 3 -9 12 -9 21 0 13 3 13 15 3 8 -7 15 -18 15
-25 0 -19 35 -46 52 -40 8 3 22 -3 32 -14 10 -11 25 -17 37 -14 12 4 25 -1 32
-12 12 -16 15 -16 48 3 33 19 38 31 24 64 -6 14 -1 16 33 11 37 -5 40 -4 45
23 4 22 0 33 -16 47 -22 17 -22 18 -3 32 26 20 13 31 -19 17 -23 -11 -29 -9
-53 15 -15 15 -30 27 -33 26 -4 -1 -5 6 -2 17 4 15 11 18 34 13 28 -5 41 9 19
22 -5 3 -10 10 -10 16 0 12 47 12 55 -1 3 -5 12 -6 21 -3 13 5 12 9 -6 28 -11
12 -22 32 -25 43 -2 12 -7 27 -10 33 -4 6 2 13 14 16 12 3 21 9 21 13 0 16
-62 60 -85 60 -12 0 -28 7 -35 15 -7 8 -20 15 -29 15 -17 0 -41 18 -41 31 0 4
27 -2 61 -12 52 -16 68 -17 103 -7 22 6 48 17 57 25 8 7 25 13 36 13 11 0 26
7 33 15 7 8 23 15 36 15 14 0 25 8 29 19 10 33 -18 64 -77 87 -32 12 -19 24
27 24 49 0 61 16 19 26 -19 5 -22 9 -12 15 9 6 7 9 -10 9 -15 0 -26 8 -32 25
-5 13 -23 31 -40 40 -31 16 -31 16 -28 -7 2 -15 -3 -24 -14 -26 -11 -2 -18 4
-20 19 -2 12 -9 24 -15 27 -16 5 -18 -49 -2 -65 8 -8 7 -13 -1 -18 -7 -4 -16
-2 -20 4 -4 8 -17 10 -35 5 -26 -6 -28 -5 -23 19 4 23 -1 29 -34 47 -21 11
-45 20 -52 20 -7 0 -35 22 -62 50 -35 35 -57 50 -76 50 -21 0 -28 -5 -28 -19
0 -27 -15 -34 -33 -16 -9 8 -21 15 -27 15 -7 0 -29 13 -49 28 -20 15 -56 37
-81 47 -25 10 -53 27 -63 37 -10 10 -23 18 -29 18 -7 0 -9 13 -5 35 3 19 3 35
-1 35 -4 0 -13 4 -21 9 -12 8 -12 12 -2 25 12 14 9 18 -18 27 -33 12 -40 26
-16 35 23 9 18 20 -14 34 -16 6 -32 19 -35 28 -3 9 -10 24 -15 32 -5 8 -12 23
-15 33 -3 9 -19 20 -35 23 -17 4 -38 15 -47 25 -9 11 -22 19 -29 19 -6 0 -25
14 -41 30 -31 33 -133 90 -160 90 -9 0 -28 6 -42 14 -15 8 -52 26 -83 41 -33
16 -61 37 -67 51 -6 12 -24 30 -40 38 -16 8 -32 22 -36 31 -3 9 -19 21 -36 26
-18 7 -36 24 -46 44 -31 66 -114 102 -167 73 -12 -6 -45 -13 -74 -14 -49 -3
-52 -1 -75 32 -22 34 -30 36 -70 19 -14 -5 -18 -2 -18 14 0 14 -6 21 -19 21
-11 0 -22 4 -25 9 -3 5 -15 7 -26 4 -24 -6 -50 13 -49 36 0 12 2 12 10 -4 8
-17 9 -17 4 5 -2 14 -5 38 -5 54 l0 30 -28 -27 c-31 -30 -62 -36 -62 -12 0 8
-4 15 -10 15 -5 0 -10 8 -10 18 -1 15 -2 15 -15 -2 -8 -11 -15 -27 -15 -37 0
-9 -7 -20 -16 -23 -11 -4 -13 -13 -9 -27 6 -19 4 -21 -14 -16 -11 3 -20 2 -19
-2 2 -18 -3 -48 -11 -60 -7 -11 -13 -11 -32 0 -13 6 -30 20 -37 31 -7 10 -24
18 -38 18 -13 0 -32 5 -42 11 -14 9 -25 8 -50 -5 -39 -20 -61 -20 -68 -1 -4 8
-12 15 -18 15 -22 0 -49 110 -48 198 0 60 -3 85 -13 88 -16 6 -2 69 21 95 8 8
14 21 14 27 0 17 21 26 30 12 6 -10 15 -6 34 16 14 16 28 37 32 47 6 18 7 17
30 -4 l24 -22 40 43 c22 24 40 47 40 52 0 4 5 8 10 8 6 0 10 -13 10 -29 0 -35
25 -48 40 -21 12 22 30 27 30 8 0 -6 -8 -20 -17 -31 -17 -18 -17 -19 0 -28 9
-6 17 -17 17 -24 0 -8 5 -15 11 -15 7 0 18 -8 25 -17 12 -17 14 -17 36 5 14
12 30 22 36 22 22 0 25 -30 6 -52 l-19 -21 38 7 c30 6 37 4 37 -9 0 -21 10
-19 44 9 16 13 26 28 22 34 -3 5 1 12 9 16 10 3 15 -1 15 -12 0 -10 6 -24 13
-31 10 -11 10 -14 0 -18 -18 -7 -16 -24 5 -39 22 -17 43 -18 39 -1 -3 18 50
21 75 3 25 -18 42 -21 33 -6 -3 6 3 10 15 10 17 0 19 -4 14 -25 l-6 -25 37 16
37 15 -4 -31 c-4 -29 15 -61 29 -47 3 4 14 2 24 -3 11 -7 20 -7 24 0 3 5 40
26 82 45 60 28 79 33 90 23 11 -9 19 -6 37 15 19 22 32 27 72 27 27 1 72 8 99
18 67 23 110 16 110 -18 0 -17 -9 -29 -30 -39 -23 -12 -26 -16 -12 -19 11 -2
17 -13 17 -29 0 -17 4 -23 14 -20 7 3 35 9 61 13 35 5 46 4 41 -5 -4 -6 -14
-11 -22 -11 -8 0 -22 -4 -32 -9 -9 -6 -38 -13 -64 -16 -27 -3 -49 -12 -52 -20
-7 -18 -7 -18 91 -3 71 10 109 30 97 49 -10 17 28 31 59 23 39 -12 47 -51 10
-47 -24 3 -32 -12 -10 -20 6 -3 -2 -6 -20 -6 -17 -1 -35 -6 -38 -12 -10 -15
42 -59 71 -59 13 0 24 -4 24 -10 0 -5 18 -10 40 -10 29 0 40 -4 40 -15 0 -12
-14 -15 -62 -15 -68 0 -108 -8 -108 -20 0 -10 93 -20 105 -11 21 17 56 19 62
5 3 -9 20 -14 44 -14 43 0 44 -2 27 -30 -7 -10 -10 -22 -7 -25 10 -9 39 6 39
21 0 8 5 14 10 14 6 0 10 -6 10 -14 0 -7 11 -25 25 -40 14 -15 25 -28 25 -30
0 -2 -16 -3 -36 -2 -21 0 -38 -3 -40 -9 -5 -14 52 -45 81 -45 27 0 52 -34 34
-45 -5 -4 -21 -4 -35 -1 -39 10 -28 -6 36 -51 63 -45 83 -81 34 -63 -32 13
-34 13 -34 -2 0 -7 20 -26 45 -42 47 -29 55 -50 10 -26 -35 19 -43 5 -12 -20
14 -11 29 -31 33 -43 4 -12 18 -34 33 -48 63 -62 66 -67 47 -88 -12 -13 -14
-21 -6 -26 6 -4 8 -15 5 -25 -3 -11 -1 -28 5 -40 9 -17 21 -20 75 -20 69 0 86
-14 33 -28 l-32 -8 28 -20 c48 -33 68 -55 62 -70 -3 -7 4 -18 15 -24 11 -6 17
-15 14 -20 -3 -5 4 -15 16 -24 25 -17 59 -70 59 -91 0 -8 8 -15 19 -15 10 0
30 -9 44 -20 14 -11 39 -23 56 -26 17 -4 34 -11 37 -15 11 -18 43 -9 46 13 2
14 12 24 28 28 24 6 23 6 -13 29 -29 18 -35 26 -27 36 7 9 8 15 1 19 -6 4 -8
13 -4 22 3 9 -8 27 -31 47 -39 35 -43 47 -24 78 11 17 10 22 -6 35 -11 8 -28
14 -38 14 -10 0 -15 5 -12 13 2 7 -4 22 -16 32 -11 10 -20 25 -20 34 0 9 -7
25 -15 35 -12 16 -12 22 -2 28 9 6 4 15 -17 32 -25 21 -29 32 -31 78 -1 51 -6
74 -26 110 -14 28 -11 38 16 48 15 6 25 17 25 30 0 16 -7 20 -35 20 -46 0 -49
27 -2 32 28 3 32 7 32 32 1 15 9 34 18 41 9 7 17 17 17 24 0 6 11 11 25 11 14
0 27 6 29 13 2 6 8 27 14 46 10 29 9 34 -8 38 -22 6 -27 23 -8 23 18 0 47 30
42 44 -3 7 18 27 45 45 28 18 53 36 56 41 3 4 -10 14 -28 21 l-32 13 32 3 c17
2 37 10 43 18 9 11 4 12 -30 8 -35 -5 -40 -3 -40 14 0 21 29 53 48 53 7 0 12
7 12 15 0 8 22 24 50 36 28 12 50 26 50 30 0 5 12 14 26 19 32 12 22 30 -17
30 -16 0 -29 5 -29 10 0 6 14 10 30 10 18 0 33 6 36 15 4 10 15 12 35 8 34 -6
40 11 9 27 -23 12 -27 30 -7 30 14 0 47 31 47 44 0 4 -8 5 -19 1 -21 -6 -91
49 -91 72 0 16 12 17 28 1 8 -8 11 -1 9 31 -1 24 -3 38 -5 32 -5 -15 -32 -14
-65 2 -28 13 -33 22 -17 32 6 3 10 15 10 26 0 19 -4 20 -55 14 -47 -6 -55 -5
-55 9 0 9 -4 16 -10 16 -5 0 -10 -7 -10 -15 0 -8 5 -15 10 -15 16 0 11 -37 -6
-44 -24 -9 -26 -8 -19 14 10 33 -17 24 -63 -20 -23 -23 -42 -49 -42 -59 0 -21
-53 -71 -76 -71 -8 0 -31 -9 -51 -20 -21 -11 -46 -20 -55 -20 -10 0 -18 -4
-18 -10 0 -18 -38 -10 -66 13 l-27 23 33 37 c32 36 32 38 15 57 -10 11 -24 20
-31 20 -20 0 -37 40 -36 87 0 41 -1 43 -34 49 -19 3 -34 12 -34 19 0 6 -11 17
-24 23 -14 6 -26 21 -28 34 -2 13 -10 23 -18 23 -10 0 -16 12 -18 38 -3 35
-22 54 -22 21 0 -8 -5 -12 -11 -9 -5 4 -9 17 -8 28 2 36 0 42 -22 55 -17 11
-27 11 -51 1 -26 -11 -32 -10 -39 4 -13 23 -37 10 -44 -25 -5 -20 -2 -35 8
-46 9 -9 16 -21 16 -27 1 -5 4 -18 7 -28 12 -36 -49 -67 -62 -32 -7 18 -35 20
-52 3 -9 -9 -18 -9 -37 0 -15 7 -37 9 -51 6 -18 -5 -24 -2 -24 10 0 19 -16 22
-22 4 -4 -12 -5 -12 -83 18 -28 10 -118 12 -131 2 -7 -5 -25 -1 -43 9 -31 18
-32 18 -51 -7 -11 -14 -20 -20 -20 -14 0 6 7 17 15 24 25 21 17 27 -44 34 -32
4 -61 9 -64 12 -3 4 -34 8 -69 10 -124 7 -129 8 -150 37 -20 28 -20 28 -39 8
-20 -21 -41 -19 -71 7 -18 15 -169 35 -194 25 -8 -3 -14 -1 -14 5 0 16 -30 24
-130 34 -144 14 -289 18 -295 7 -4 -5 -19 -9 -34 -9 -16 0 -39 -8 -52 -19 -26
-21 -88 -18 -124 5 -11 7 -40 16 -65 20 -25 4 -63 17 -86 30 -22 13 -50 24
-60 24 -11 0 -25 5 -32 12 -9 9 -15 8 -25 -7 -11 -14 -29 -18 -83 -20 -38 -1
-85 -6 -104 -11 -21 -6 -52 -6 -82 0 -35 7 -58 7 -81 -2 -19 -7 -55 -12 -81
-12 -25 0 -72 -8 -104 -19 -47 -15 -129 -27 -232 -32 -8 -1 -29 -7 -47 -15
-39 -18 -266 -18 -294 -1 -15 9 -26 8 -53 -7 -33 -17 -36 -18 -88 -1 -29 10
-64 26 -77 36 -33 26 -42 24 -35 -8 l7 -28 -36 34 c-30 29 -40 33 -69 27 -23
-4 -41 -1 -56 10 -29 20 -41 10 -19 -14 18 -20 22 -42 8 -42 -16 0 -81 30 -81
38 0 8 -61 44 -66 39 -2 -2 -6 -47 -8 -100 -5 -98 -13 -126 -44 -149 -10 -7
-22 -31 -27 -53 -10 -37 -12 -40 -43 -37 -23 2 -32 -1 -32 -12 0 -8 5 -18 10
-21 16 -10 12 -42 -7 -49 -15 -6 -13 -10 10 -32 32 -30 34 -41 7 -49 -11 -3
-20 -10 -20 -15 0 -17 74 -90 91 -90 25 0 51 -34 37 -48 -8 -8 -23 -5 -57 14
-45 24 -81 31 -81 17 1 -5 19 -20 40 -35 55 -38 52 -52 -7 -44 -26 3 -49 10
-52 15 -4 4 -19 11 -36 15 -17 4 -58 36 -97 74 -80 80 -116 111 -154 134 -32
19 -51 66 -29 74 9 4 11 17 8 44 -3 22 -3 46 1 55 5 15 11 14 52 -9 49 -27 74
-33 74 -16 0 6 7 10 15 10 8 0 15 -6 15 -14 0 -9 8 -12 25 -8 30 5 25 16 -24
47 -21 13 -56 40 -77 59 -22 20 -42 36 -46 36 -5 0 -8 6 -8 14 0 8 -10 31 -21
51 -21 35 -21 36 -3 56 17 18 17 22 2 47 -12 20 -14 32 -6 45 8 14 2 25 -29
55 -44 44 -107 85 -116 75z m1038 -283 c3 -5 1 -10 -4 -10 -6 0 -11 5 -11 10
0 6 2 10 4 10 3 0 8 -4 11 -10z m-40 -32 c22 -27 24 -33 12 -45 -7 -8 -25 -15
-38 -15 -13 -1 -29 -5 -35 -10 -19 -14 -43 2 -74 47 l-30 43 30 -15 c28 -13
32 -13 56 6 36 28 48 27 79 -11z m440 -38 c3 -5 2 -10 -4 -10 -5 0 -13 5 -16
10 -3 6 -2 10 4 10 5 0 13 -4 16 -10z m2141 -35 c6 -16 -12 -45 -27 -45 -10 0
-12 44 -2 53 11 11 23 8 29 -8z m-3416 -16 c0 -5 -4 -9 -10 -9 -5 0 -10 7 -10
16 0 8 5 12 10 9 6 -3 10 -10 10 -16z m94 -35 c4 -9 4 -19 2 -21 -8 -8 -26 8
-26 23 0 19 16 18 24 -2z m579 -16 c21 -28 16 -51 -8 -42 -8 4 -13 9 -10 14 2
4 -2 16 -10 26 -8 10 -15 23 -15 27 0 15 23 1 43 -25z m3617 -33 c0 -8 -4 -15
-10 -15 -5 0 -10 7 -10 15 0 8 5 15 10 15 6 0 10 -7 10 -15z m-2288 -47 c-9
-9 -12 -7 -12 12 0 19 3 21 12 12 9 -9 9 -15 0 -24z m63 -50 c6 -33 5 -38 -11
-38 -16 0 -17 2 -4 10 13 9 13 12 -2 24 -18 13 -23 37 -11 49 11 11 21 -5 28
-45z m55 42 c0 -5 -4 -10 -10 -10 -5 0 -10 5 -10 10 0 6 5 10 10 10 6 0 10 -4
10 -10z m2130 -15 c0 -8 -7 -15 -15 -15 -16 0 -20 12 -8 23 11 12 23 8 23 -8z
m-2107 -65 c-3 -10 -13 -20 -23 -23 -15 -4 -16 0 -7 36 9 35 12 38 23 23 6 -9
10 -25 7 -36z m2170 43 c-7 -2 -19 -2 -25 0 -7 3 -2 5 12 5 14 0 19 -2 13 -5z
m-2359 -19 c4 -9 4 -19 1 -22 -7 -8 -35 19 -29 29 8 14 21 11 28 -7z m724 -13
c3 -8 -1 -12 -9 -9 -7 2 -15 10 -17 17 -3 8 1 12 9 9 7 -2 15 -10 17 -17z
m-1551 -23 c-3 -8 -6 -5 -6 6 -1 11 2 17 5 13 3 -3 4 -12 1 -19z m2033 3 c-11
-22 -29 -35 -36 -28 -9 8 20 47 34 47 9 0 10 -5 2 -19z m1806 -6 c-21 -16 -32
-13 -21 4 3 6 14 11 23 11 15 -1 15 -2 -2 -15z m-3046 -31 c0 -8 -4 -12 -10
-9 -5 3 -10 13 -10 21 0 8 5 12 10 9 6 -3 10 -13 10 -21z m130 -15 c0 -5 -4
-9 -10 -9 -5 0 -10 7 -10 16 0 8 5 12 10 9 6 -3 10 -10 10 -16z m757 -1 c-3
-8 -6 -5 -6 6 -1 11 2 17 5 13 3 -3 4 -12 1 -19z m-1847 -18 c12 -8 11 -10 -7
-10 -13 0 -23 5 -23 10 0 13 11 13 30 0z m2154 -24 c-6 -16 -8 -17 -16 -2 -11
19 0 42 13 29 6 -6 7 -18 3 -27z m-2047 18 c-3 -3 -12 -4 -19 -1 -8 3 -5 6 6
6 11 1 17 -2 13 -5z m1633 -17 c0 -25 -26 -67 -41 -67 -5 0 -9 20 -9 45 0 41
2 45 25 45 19 0 25 -5 25 -23z m-1292 -5 c3 -9 -2 -13 -14 -10 -9 1 -19 9 -22
16 -3 9 2 13 14 10 9 -1 19 -9 22 -16z m2222 -12 c0 -5 -10 -10 -22 -10 -19 0
-20 2 -8 10 19 13 30 13 30 0z m-2680 -10 c0 -5 -6 -10 -14 -10 -8 0 -18 5
-21 10 -3 6 3 10 14 10 12 0 21 -4 21 -10z m1969 -3 c8 -11 6 -18 -8 -31 -18
-17 -20 -16 -26 5 -7 21 -9 21 -20 6 -12 -17 -25 -13 -25 9 0 23 62 31 79 11z
m269 -19 c-6 -18 -28 -21 -28 -4 0 9 7 16 16 16 9 0 14 -5 12 -12z m-126 -57
c-22 -23 -44 -41 -50 -41 -17 0 -23 35 -13 64 11 28 31 35 31 11 0 -22 28 -18
41 6 7 14 14 18 21 11 7 -7 -3 -23 -30 -51z m248 25 c0 -8 -4 -18 -10 -21 -5
-3 -10 3 -10 14 0 12 5 21 10 21 6 0 10 -6 10 -14z m-2390 -6 c0 -5 -2 -10 -4
-10 -3 0 -8 5 -11 10 -3 6 -1 10 4 10 6 0 11 -4 11 -10z m2740 6 c0 -11 -19
-15 -25 -6 -3 5 1 10 9 10 9 0 16 -2 16 -4z m100 -6 c0 -5 -7 -10 -16 -10 -8
0 -12 5 -9 10 3 6 10 10 16 10 5 0 9 -4 9 -10z m-405 -50 c-10 -11 -20 -18
-23 -15 -7 6 18 35 31 35 5 0 2 -9 -8 -20z m379 4 c0 -5 -5 -21 -12 -36 -10
-24 -17 -28 -52 -28 -22 0 -40 -4 -40 -10 0 -5 -17 -10 -37 -10 l-37 0 49 49
c44 44 53 49 89 47 23 -1 41 -6 40 -12z m-204 -8 c0 -3 -4 -8 -10 -11 -5 -3
-10 -1 -10 4 0 6 5 11 10 11 6 0 10 -2 10 -4z m339 -5 c19 -12 -10 -26 -73
-35 -38 -6 -47 -5 -44 6 3 7 15 15 29 16 13 2 28 8 34 13 11 11 36 11 54 0z
m-3514 -21 c3 -6 -1 -13 -10 -16 -19 -8 -30 0 -20 15 8 14 22 14 30 1z m3105
-20 c-6 -11 -16 -17 -22 -14 -7 5 -5 12 7 21 25 18 28 17 15 -7z m-3610 -10
c0 -5 -7 -10 -15 -10 -8 0 -15 5 -15 10 0 6 7 10 15 10 8 0 15 -4 15 -10z
m4155 -60 c-3 -5 -17 -10 -31 -10 -13 0 -24 5 -24 10 0 6 14 10 31 10 17 0 28
-4 24 -10z m-3565 -35 c0 -2 -14 -14 -31 -26 -26 -18 -33 -19 -40 -8 -13 22
-11 29 13 38 20 7 58 4 58 -4z m280 -25 c0 -5 -7 -10 -16 -10 -8 0 -12 5 -9
10 3 6 10 10 16 10 5 0 9 -4 9 -10z m-360 -40 c0 -12 -28 -25 -36 -17 -9 9 6
27 22 27 8 0 14 -5 14 -10z m-38 -58 c14 -14 -37 -71 -64 -72 -21 0 -32 16
-17 25 7 5 3 12 -10 22 -12 8 -21 21 -21 30 0 13 9 15 51 11 27 -3 55 -10 61
-16z m4325 -28 c-3 -3 -12 -4 -19 -1 -8 3 -5 6 6 6 11 1 17 -2 13 -5z m-4403
-59 c4 -11 -2 -15 -24 -15 -30 0 -41 14 -17 23 22 10 35 7 41 -8z m4436 -75
c0 -5 -4 -10 -9 -10 -6 0 -13 5 -16 10 -3 6 1 10 9 10 9 0 16 -4 16 -10z
m-4415 -20 c3 -5 -3 -10 -14 -10 -12 0 -21 5 -21 10 0 6 6 10 14 10 8 0 18 -4
21 -10z m1173 -387 c2 -13 7 -23 12 -23 15 0 19 -41 5 -47 -23 -8 -104 28
-111 49 -7 22 2 34 31 41 38 10 60 3 63 -20z m3112 17 c0 -13 -11 -13 -30 0
-12 8 -11 10 8 10 12 0 22 -4 22 -10z m-1372 -12 c7 -7 12 -18 12 -26 0 -8 8
-21 18 -28 16 -13 16 -15 -2 -29 -21 -16 -46 -13 -83 11 -29 18 -29 48 -1 68
27 19 40 20 56 4z m148 -53 c-7 -19 -36 -19 -36 0 0 17 33 38 38 24 2 -5 1
-16 -2 -24z m-1730 -62 c-11 -11 -17 4 -9 23 7 18 8 18 11 1 2 -10 1 -21 -2
-24z m-1271 7 c3 -5 1 -10 -4 -10 -6 0 -11 5 -11 10 0 6 2 10 4 10 3 0 8 -4
11 -10z m2733 -29 c3 -8 -1 -12 -9 -9 -7 2 -15 10 -17 17 -3 8 1 12 9 9 7 -2
15 -10 17 -17z m1717 -121 c-3 -5 -16 -10 -28 -10 -18 0 -19 2 -7 10 20 13 43
13 35 0z m-2543 -91 c11 -17 25 -22 80 -24 50 -2 74 -8 94 -24 31 -24 50 -27
57 -8 8 21 136 21 159 0 17 -15 20 -15 48 12 l30 29 0 -33 c0 -22 4 -30 12
-25 6 4 16 0 22 -8 11 -16 94 -48 121 -48 8 0 18 -6 22 -14 4 -7 18 -18 30
-25 13 -6 30 -25 38 -41 10 -20 23 -30 38 -30 12 0 27 -8 32 -18 25 -46 72
-101 89 -104 10 -2 27 -18 37 -37 10 -18 27 -43 38 -55 12 -12 21 -27 21 -32
0 -5 8 -14 19 -21 15 -9 29 -6 77 16 32 16 77 36 99 46 22 9 57 25 78 36 22
10 47 19 57 19 11 0 22 5 25 10 3 6 16 10 29 10 12 0 26 4 31 9 14 13 157 49
251 63 101 15 300 16 315 1 8 -8 -33 -12 -148 -16 -87 -3 -180 -10 -208 -16
-98 -19 -110 -22 -150 -33 -22 -5 -49 -14 -60 -18 -11 -5 -63 -25 -115 -45
-184 -72 -256 -113 -234 -135 18 -18 157 -9 170 11 3 5 22 9 43 9 20 0 41 4
46 9 6 5 30 12 55 15 25 4 72 11 105 16 306 46 489 58 581 40 32 -7 77 -15 99
-17 22 -3 44 -9 49 -14 13 -12 -16 -11 -89 4 -66 13 -344 6 -425 -11 -54 -11
-52 -12 75 -22 118 -10 172 -18 200 -29 32 -13 177 -59 208 -65 17 -4 31 -16
37 -31 5 -14 18 -25 28 -25 10 0 27 -9 37 -20 10 -11 22 -20 26 -20 12 0 78
-44 79 -52 1 -23 -62 5 -102 45 -10 9 -25 17 -34 17 -12 0 -7 -10 16 -40 50
-63 28 -59 -37 5 -70 69 -103 85 -183 85 -45 0 -62 4 -66 15 -5 12 -35 15
-173 16 -145 1 -158 3 -101 11 36 5 120 7 187 4 68 -3 125 -1 127 3 5 7 -50
27 -140 50 -52 14 -322 14 -417 1 -70 -10 -105 -18 -185 -41 -27 -8 -49 -8
-76 0 -31 8 -41 7 -53 -4 -8 -8 -19 -15 -24 -15 -6 0 -7 -4 -4 -10 3 -5 15
-10 27 -10 19 0 19 -1 -3 -20 -24 -20 -24 -20 -4 -36 32 -25 174 -5 369 52 56
16 110 19 101 4 -3 -5 -26 -10 -49 -10 -27 0 -48 -6 -56 -15 -7 -8 -22 -15
-34 -15 -20 -1 -20 -1 -3 -11 11 -6 37 -8 60 -5 23 4 96 11 162 16 66 4 155
12 199 15 51 5 76 4 72 -3 -3 -5 -45 -13 -93 -16 -49 -4 -140 -11 -203 -17
-63 -5 -166 -11 -227 -13 -62 -2 -125 -7 -140 -11 -28 -7 -28 -7 12 -20 38
-12 36 -13 -61 -14 -78 -1 -105 -5 -114 -16 -20 -24 -5 -29 90 -29 50 0 90 -3
90 -7 0 -4 -36 -9 -80 -11 -107 -6 -132 -28 -33 -28 40 0 74 -4 77 -9 6 -8
-97 -31 -141 -31 -11 0 -26 -7 -33 -15 -10 -12 -9 -20 4 -40 10 -15 24 -29 32
-32 10 -4 12 -9 4 -18 -8 -9 -6 -14 5 -19 21 -8 10 -26 -16 -26 -33 0 -18 -32
21 -47 l35 -13 -41 5 c-32 4 -48 0 -68 -16 -26 -20 -35 -49 -16 -49 21 0 9
-20 -16 -26 -19 -5 -24 -12 -21 -25 3 -10 -1 -23 -9 -30 -19 -16 -18 -26 6
-32 23 -6 28 -51 7 -64 -7 -4 -20 -20 -29 -34 -17 -26 -16 -27 7 -31 14 -3 27
-3 30 1 9 9 99 30 107 24 5 -2 8 -10 8 -17 0 -7 12 -19 26 -26 30 -16 56 -5
64 28 6 24 51 62 74 62 9 0 16 6 16 13 0 26 61 44 121 38 95 -11 123 -51 37
-51 -101 0 -133 -23 -48 -34 34 -5 50 -11 50 -21 0 -21 -52 -45 -97 -44 -52 2
-91 -10 -136 -39 -24 -16 -51 -25 -72 -24 -24 1 -35 -3 -35 -13 0 -8 -14 -30
-31 -49 -20 -24 -29 -42 -25 -54 4 -12 -4 -32 -24 -57 -16 -21 -30 -44 -30
-51 0 -7 -9 -18 -21 -24 -16 -9 -19 -18 -14 -37 6 -26 -21 -113 -36 -113 -5 0
-19 -17 -33 -37 -13 -21 -35 -51 -50 -66 -14 -15 -26 -39 -26 -52 0 -15 -10
-31 -25 -41 -16 -11 -25 -26 -25 -43 0 -18 -9 -32 -30 -46 -17 -11 -44 -44
-61 -72 -35 -60 -32 -58 -81 -67 -47 -9 -48 0 -9 77 16 31 31 71 35 90 4 20
13 37 20 40 7 3 26 27 41 54 16 26 34 51 41 56 7 4 11 14 8 21 -3 7 1 16 9 19
9 3 13 14 10 30 -3 15 4 39 20 64 13 21 28 59 32 83 4 25 14 55 22 67 8 12 12
26 9 31 -3 5 8 22 25 38 17 17 29 37 27 49 -3 27 30 75 60 86 18 7 22 13 15
20 -8 8 -17 8 -31 0 -29 -15 -52 -14 -52 4 0 8 -4 15 -10 15 -5 0 -18 9 -29
21 -11 12 -24 19 -29 15 -14 -8 -49 22 -36 31 17 13 15 115 -4 136 -17 19 -48
23 -54 7 -2 -6 -21 -11 -43 -12 -22 0 -46 -6 -54 -12 -11 -9 -13 -7 -7 10 4
14 -1 30 -15 47 -22 29 -49 36 -49 12 0 -8 -7 -15 -16 -15 -12 0 -14 7 -8 32
6 28 4 31 -8 21 -11 -9 -13 -28 -10 -74 4 -49 2 -61 -9 -57 -8 3 -13 16 -11
29 3 29 -19 109 -29 103 -4 -2 -10 5 -14 16 -3 11 -12 20 -18 20 -8 0 -8 3 1
8 15 10 5 42 -14 42 -12 0 -44 37 -44 51 0 3 16 14 35 25 43 23 45 34 5 34
-22 0 -33 7 -44 29 -9 16 -22 31 -31 34 -17 7 -20 42 -5 52 6 4 17 1 25 -5 12
-10 16 -9 20 4 3 9 7 23 10 32 3 9 0 23 -6 30 -8 9 -8 14 -1 14 6 0 14 -5 18
-11 4 -8 9 -8 17 0 7 7 5 16 -7 30 -15 17 -16 27 -5 102 16 110 16 144 -2 203
-9 32 -22 52 -36 59 -23 10 -32 47 -12 47 5 0 7 5 4 11 -4 6 -14 8 -22 5 -24
-10 -65 24 -59 49 4 14 -3 34 -19 55 -14 19 -25 40 -25 47 0 8 -13 19 -29 24
-15 6 -33 20 -38 32 -8 16 -31 28 -85 45 -41 12 -84 22 -95 22 -12 0 -25 5
-28 10 -3 6 -17 10 -29 10 -27 0 -54 26 -40 39 9 9 38 18 65 20 9 0 23 -8 31
-20z m-1327 -229 c3 -5 2 -10 -4 -10 -5 0 -13 5 -16 10 -3 6 -2 10 4 10 5 0
13 -4 16 -10z m-615 -15 c-7 -9 -15 -13 -19 -10 -3 3 1 10 9 15 21 14 24 12
10 -5z m721 -26 c27 -12 46 -25 43 -30 -3 -5 -17 -3 -32 5 -15 8 -43 21 -62
30 -21 9 -28 16 -17 16 10 0 40 -10 68 -21z m1467 -7 c3 -9 -2 -13 -14 -10 -9
1 -19 9 -22 16 -3 9 2 13 14 10 9 -1 19 -9 22 -16z m2201 -9 c-7 -10 -14 -20
-16 -22 -1 -1 -7 0 -13 4 -14 9 6 35 27 35 13 0 13 -3 2 -17z m-2219 -42 c26
-15 28 -20 14 -25 -24 -9 -52 2 -64 25 -14 25 9 26 50 0z m1813 12 c-13 -2
-33 -2 -45 0 -13 2 -3 4 22 4 25 0 35 -2 23 -4z m287 -23 c0 -5 -4 -10 -9 -10
-6 0 -13 5 -16 10 -3 6 1 10 9 10 9 0 16 -4 16 -10z m-150 -20 c0 -5 7 -10 15
-10 8 0 15 -5 15 -11 0 -5 -5 -7 -10 -4 -6 3 -22 13 -38 21 -25 13 -26 14 -4
14 12 0 22 -4 22 -10z m75 -40 c3 -5 -1 -10 -9 -10 -9 0 -16 5 -16 10 0 6 4
10 9 10 6 0 13 -4 16 -10z m-4185 -19 c22 -6 20 -8 -18 -13 -46 -7 -82 -1 -82
13 0 10 64 10 100 0z m4245 -21 c3 -5 1 -10 -4 -10 -6 0 -11 5 -11 10 0 6 2
10 4 10 3 0 8 -4 11 -10z m-4032 -7 c-7 -2 -19 -2 -25 0 -7 3 -2 5 12 5 14 0
19 -2 13 -5z m77 -13 c11 -7 7 -10 -17 -10 -17 0 -35 5 -38 10 -8 13 35 13 55
0z m4465 0 c3 -5 1 -10 -4 -10 -6 0 -11 5 -11 10 0 6 2 10 4 10 3 0 8 -4 11
-10z m-450 -24 c17 -13 27 -27 24 -30 -3 -3 -21 8 -40 24 -41 35 -27 40 16 6z
m370 14 c3 -5 1 -10 -4 -10 -6 0 -11 5 -11 10 0 6 2 10 4 10 3 0 8 -4 11 -10z
m-4265 -20 c0 -13 -30 -13 -50 0 -11 7 -7 10 18 10 17 0 32 -4 32 -10z m110
-20 c0 -13 -70 -13 -90 0 -11 7 0 10 38 10 28 0 52 -4 52 -10z m3670 0 c0 -12
-17 -12 -45 0 -17 7 -15 9 13 9 17 1 32 -3 32 -9z m538 -9 c3 -8 -1 -12 -9 -9
-7 2 -15 10 -17 17 -3 8 1 12 9 9 7 -2 15 -10 17 -17z m-4928 -9 c0 -5 -7 -17
-15 -28 -15 -19 -20 -8 -9 20 6 17 24 22 24 8z m840 -2 c0 -5 -20 -10 -44 -10
-25 0 -48 5 -51 10 -4 6 13 10 44 10 28 0 51 -4 51 -10z m3600 0 c0 -5 -4 -10
-10 -10 -5 0 -10 5 -10 10 0 6 5 10 10 10 6 0 10 -4 10 -10z m130 -23 c0 -7
16 -21 35 -31 47 -26 66 -48 55 -65 -7 -12 -14 -9 -40 12 -17 15 -37 27 -44
27 -21 0 -47 36 -40 54 7 19 34 22 34 3z m-1260 -57 c0 -5 -8 -10 -17 -10 -15
0 -16 2 -3 10 19 12 20 12 20 0z m1098 -7 c-10 -2 -28 -2 -40 0 -13 2 -5 4 17
4 22 1 32 -1 23 -4z m69 1 c-3 -3 -12 -4 -19 -1 -8 3 -5 6 6 6 11 1 17 -2 13
-5z m-3582 -64 c-7 -12 -59 -12 -95 0 -19 6 -9 8 38 9 40 1 61 -3 57 -9z
m3785 0 c0 -5 -4 -10 -10 -10 -5 0 -10 5 -10 10 0 6 5 10 10 10 6 0 10 -4 10
-10z m27 -66 c-9 -9 -28 6 -21 18 4 6 10 6 17 -1 6 -6 8 -13 4 -17z m-4704
-10 c-26 -20 -35 -17 -16 5 9 11 21 18 25 15 5 -3 1 -12 -9 -20z m4185 17 c10
-6 8 -10 -8 -14 -30 -8 -57 2 -38 14 17 11 29 11 46 0z m-109 -17 c10 -9 -11
-12 -136 -19 -149 -8 -182 5 -55 22 69 10 180 8 191 -3z m-399 -26 c0 -12 -31
-16 -127 -17 -55 -1 -93 2 -93 8 0 5 8 11 18 14 29 7 202 3 202 -5z m-3527
-25 c-7 -2 -19 -2 -25 0 -7 3 -2 5 12 5 14 0 19 -2 13 -5z m3370 -24 c-8 -8
-16 -8 -30 0 -16 9 -14 10 12 11 21 0 26 -3 18 -11z m-3223 -19 c-20 -13 -33
-13 -25 0 3 6 14 10 23 10 15 0 15 -2 2 -10z m638 -45 c3 -14 -1 -17 -22 -13
-19 4 -30 0 -37 -13 -11 -21 -49 -26 -49 -6 1 13 79 57 95 53 6 -2 12 -11 13
-21z m-142 -76 c-14 -11 -32 -19 -39 -16 -6 2 1 11 18 20 42 23 53 21 21 -4z
m2604 -29 c0 -13 -20 -13 -40 0 -12 8 -9 10 13 10 15 0 27 -4 27 -10z m-2640
-15 c0 -17 -19 -28 -85 -45 -27 -8 -66 -23 -85 -35 -64 -40 -252 -77 -287 -56
-17 10 -17 10 2 12 11 1 28 0 38 -1 20 -2 112 25 142 42 18 10 77 27 155 45
14 3 27 9 30 12 9 10 64 39 78 40 6 1 12 -6 12 -14z m900 -10 c-7 -8 -16 -15
-21 -15 -5 0 -9 7 -9 15 0 9 9 15 21 15 18 0 19 -2 9 -15z m1850 -1 c0 -2 -9
-4 -21 -4 -11 0 -18 4 -14 10 5 8 35 3 35 -6z m66 -13 c-3 -5 -15 -7 -26 -4
-28 7 -25 13 6 13 14 0 23 -4 20 -9z m995 -24 c-1 -12 -15 -9 -19 4 -3 6 1 10
8 8 6 -3 11 -8 11 -12z m-924 -3 c-3 -3 -12 -4 -19 -1 -8 3 -5 6 6 6 11 1 17
-2 13 -5z m-2087 -33 c0 -6 -4 -13 -10 -16 -5 -3 -10 1 -10 9 0 9 5 16 10 16
6 0 10 -4 10 -9z m1765 -1 c3 -5 2 -10 -4 -10 -5 0 -13 5 -16 10 -3 6 -2 10 4
10 5 0 13 -4 16 -10z m65 0 c11 -7 6 -10 -20 -10 -26 0 -31 3 -20 10 8 5 17
10 20 10 3 0 12 -5 20 -10z m1310 -10 c0 -5 -7 -10 -15 -10 -8 0 -15 5 -15 10
0 6 7 10 15 10 8 0 15 -4 15 -10z m-4435 -20 c8 -13 -5 -13 -25 0 -13 8 -13
10 2 10 9 0 20 -4 23 -10z m3419 -15 c15 -8 41 -15 57 -15 16 0 29 -5 29 -11
0 -7 -11 -8 -32 -3 -18 3 -64 12 -103 19 -56 10 -64 13 -40 17 53 9 59 8 89
-7z m214 -12 c31 -7 38 -23 10 -23 -13 0 -34 10 -48 21 -20 17 -21 19 -5 14
11 -4 30 -10 43 -12z m67 -33 c3 -5 2 -10 -4 -10 -5 0 -13 5 -16 10 -3 6 -2
10 4 10 5 0 13 -4 16 -10z m-3190 -100 c-3 -5 -12 -10 -20 -10 -8 0 -17 5 -20
10 -4 6 5 10 20 10 15 0 24 -4 20 -10z m2062 -12 c-3 -8 -6 -5 -6 6 -1 11 2
17 5 13 3 -3 4 -12 1 -19z m1308 -10 c27 -12 34 -28 11 -28 -21 0 -67 26 -59
33 9 10 18 9 48 -5z m-1275 -34 c0 -8 -5 -12 -10 -9 -6 4 -8 11 -5 16 9 14 15
11 15 -7z m-390 -307 c0 -7 -5 -18 -12 -25 -18 -18 46 -16 82 3 37 19 51 2 21
-26 -12 -11 -19 -25 -15 -30 7 -13 -25 -89 -38 -89 -5 0 -13 -11 -18 -25 -5
-14 -16 -25 -25 -25 -8 0 -15 -8 -15 -17 0 -9 -7 -25 -17 -35 -9 -10 -13 -21
-10 -24 9 -10 69 31 104 70 36 41 66 46 87 13 14 -20 14 -27 0 -67 -9 -25 -21
-52 -28 -60 -7 -8 -28 -51 -45 -95 -33 -82 -68 -125 -101 -125 -10 0 -22 -5
-26 -11 -3 -6 -19 -9 -35 -5 -35 7 -59 -1 -59 -21 0 -8 4 -12 9 -9 5 3 14 -1
21 -9 14 -17 8 -19 -45 -15 -42 3 -57 17 -44 42 15 28 -2 44 -30 26 -19 -11
-24 -11 -34 2 -13 16 -85 16 -102 -1 -12 -12 -52 -12 -60 1 -3 6 -1 10 4 10 6
0 11 5 11 10 0 15 -16 12 -34 -6 -15 -14 -18 -14 -36 8 -11 12 -19 38 -20 56
0 17 -3 32 -7 32 -18 -1 -62 -49 -65 -71 -3 -21 -8 -24 -43 -22 -59 4 -116 49
-138 109 -10 27 -34 82 -53 122 -46 97 -53 131 -29 149 30 21 59 15 90 -17 16
-16 32 -30 36 -30 4 0 21 -13 38 -29 43 -40 131 -80 164 -74 16 3 27 1 27 -6
0 -6 9 -11 20 -11 23 0 28 38 8 58 -19 19 -1 25 24 8 28 -20 38 -20 38 -1 0
11 7 13 29 9 17 -4 32 -1 36 5 5 9 10 9 21 0 15 -12 44 -6 44 10 0 6 -10 20
-22 31 -39 36 -33 68 25 130 45 47 58 55 92 57 47 3 74 7 95 16 17 6 48 14 68
16 6 0 12 -5 12 -12z m-2369 -156 c15 -14 17 -21 8 -27 -18 -11 -82 -11 -86 1
-2 8 35 38 55 44 2 1 12 -8 23 -18z m-71 -55 c0 -2 -3 -11 -6 -20 -9 -23 -24
-20 -24 4 0 11 7 20 15 20 8 0 15 -2 15 -4z m323 -73 c-7 -2 -19 -2 -25 0 -7
3 -2 5 12 5 14 0 19 -2 13 -5z m-333 -12 c0 -14 -18 -23 -30 -16 -6 4 -8 11
-5 16 8 12 35 12 35 0z m383 -20 c4 -17 2 -18 -14 -8 -22 14 -25 27 -5 27 7 0
16 -9 19 -19z m105 -96 c0 -14 -2 -25 -3 -25 -1 0 -16 5 -34 11 -42 15 -41 39
3 39 29 0 34 -3 34 -25z m4217 5 c-3 -5 -15 -10 -26 -10 -11 0 -17 5 -14 10 3
6 15 10 26 10 11 0 17 -4 14 -10z m-4120 -19 c3 -5 -3 -12 -13 -16 -22 -6 -52
3 -52 16 0 12 57 12 65 0z m-165 -31 c0 -5 -9 -10 -20 -10 -11 0 -20 5 -20 10
0 6 9 10 20 10 11 0 20 -4 20 -10z m4440 -20 c0 -5 -9 -10 -19 -10 -11 0 -23
5 -26 10 -4 6 5 10 19 10 14 0 26 -4 26 -10z m-4340 -36 c0 -2 -7 -4 -15 -4
-8 0 -15 4 -15 10 0 5 7 7 15 4 8 -4 15 -8 15 -10z m60 -4 c0 -5 -7 -10 -16
-10 -8 0 -12 5 -9 10 3 6 10 10 16 10 5 0 9 -4 9 -10z m114 -36 c22 -9 20 -24
-3 -24 -21 0 -34 13 -24 24 8 7 8 7 27 0z m1453 -28 c3 -2 7 -22 10 -44 6 -48
-12 -59 -57 -34 -32 18 -47 50 -36 78 5 13 15 15 42 11 20 -4 39 -8 41 -11z
m2366 7 c4 -3 -7 -15 -24 -25 -17 -11 -34 -17 -37 -14 -2 3 3 8 12 12 9 3 16
12 16 20 0 14 22 19 33 7z m87 -3 c11 -7 12 -12 3 -21 -8 -8 -14 -6 -22 10
-12 22 -5 27 19 11z m-3855 -20 c3 -5 -3 -10 -14 -10 -11 0 -23 5 -26 10 -3 6
3 10 14 10 11 0 23 -4 26 -10z m115 -34 c0 -3 -4 -8 -10 -11 -5 -3 -10 -1 -10
4 0 6 5 11 10 11 6 0 10 -2 10 -4z m3883 -20 c26 -20 21 -26 -13 -13 -16 6
-30 15 -30 19 0 12 23 9 43 -6z m-4496 -22 c-3 -3 -12 -4 -19 -1 -8 3 -5 6 6
6 11 1 17 -2 13 -5z m43 -66 c0 -11 -67 -4 -78 7 -3 3 3 11 13 19 16 12 22 12
42 -1 13 -9 23 -20 23 -25z m2385 -8 c31 0 13 -16 -29 -28 -34 -9 -45 -17 -48
-34 -2 -13 -12 -24 -26 -28 -13 -3 -23 -8 -23 -12 1 -5 -1 -8 -4 -8 -3 0 -9 0
-15 0 -5 0 -10 7 -10 15 0 8 7 15 15 15 17 0 20 16 4 26 -6 4 9 24 37 50 48
43 49 43 67 24 10 -11 24 -20 32 -20z m-2325 20 c0 -5 -4 -10 -10 -10 -5 0
-10 5 -10 10 0 6 5 10 10 10 6 0 10 -4 10 -10z m2952 -16 c15 -8 32 -14 38
-14 6 0 36 -16 66 -35 30 -19 57 -35 61 -35 12 0 53 -43 53 -55 0 -22 35 -44
58 -38 17 4 22 1 22 -15 0 -23 30 -59 73 -87 15 -9 27 -22 27 -29 1 -16 36
-56 50 -56 14 0 57 -48 66 -73 6 -18 -11 -47 -27 -47 -5 0 -9 17 -9 38 0 31
-5 41 -29 55 -16 9 -36 17 -44 17 -8 0 -38 28 -67 63 -90 109 -134 151 -180
174 -25 13 -49 23 -53 23 -5 0 -36 20 -68 45 -33 25 -66 45 -74 45 -13 0 -35
28 -35 45 0 8 36 -3 72 -21z m-2834 0 c34 -16 42 -34 17 -34 -19 0 -65 29 -65
41 0 13 13 11 48 -7z m-53 -24 c4 -6 -9 -10 -32 -10 -28 0 -34 3 -23 10 20 13
47 13 55 0z m650 -130 c3 -6 -4 -10 -17 -10 -18 0 -20 2 -8 10 19 12 18 12 25
0z m925 -56 c0 -16 -16 -19 -25 -4 -8 13 4 32 16 25 5 -4 9 -13 9 -21z m1185
13 c11 -8 47 -24 80 -37 78 -31 109 -50 97 -62 -11 -11 -111 7 -146 25 -12 5
-28 13 -36 18 -8 4 -14 12 -12 18 1 7 -5 14 -13 17 -18 7 -20 34 -2 34 7 0 21
-6 32 -13z m-2442 -14 c26 -3 47 -10 47 -15 0 -10 -175 -6 -186 5 -4 4 4 7 19
7 14 0 29 5 32 11 4 6 14 7 24 4 9 -4 37 -9 64 -12z m130 -38 c1 -6 -16 -11
-38 -12 l-40 -2 30 14 c32 15 45 15 48 0z m105 -34 c10 -6 10 -10 -2 -20 -12
-10 -19 -10 -36 2 -31 21 5 40 38 18z m2554 -121 c20 -16 24 -30 8 -30 -10 0
-70 56 -70 65 0 6 37 -15 62 -35z m-2782 6 c0 -20 23 -26 107 -26 55 0 74 -3
70 -12 -2 -8 -24 -13 -58 -14 -30 0 -81 -2 -115 -4 -33 -2 -66 0 -72 4 -6 4
-28 4 -48 0 -28 -5 -36 -4 -32 7 2 7 16 16 30 20 15 4 37 14 50 23 28 20 68
21 68 2z m1288 2 c-6 -16 -36 -34 -44 -26 -3 4 -4 14 -1 23 7 17 51 21 45 3z
m-984 -23 c17 -13 17 -14 -10 -20 -16 -4 -37 -9 -46 -12 -21 -5 -24 17 -6 35
16 16 39 15 62 -3z m96 -5 c0 -5 -4 -10 -9 -10 -5 0 -16 -3 -25 -6 -11 -4 -16
-1 -16 10 0 10 9 16 25 16 14 0 25 -4 25 -10z m2620 -12 c0 -13 -23 -5 -28 10
-2 7 2 10 12 6 9 -3 16 -11 16 -16z m-2041 -5 c8 -15 4 -18 -26 -20 -19 -1
-44 -9 -54 -19 -11 -9 -21 -15 -24 -12 -9 9 62 64 87 67 4 1 11 -7 17 -16z
m-1216 -26 c18 -10 23 -17 17 -28 -8 -11 -13 -10 -30 8 -32 35 -28 41 13 20z
m3097 -2 c7 -9 10 -18 6 -22 -3 -4 -12 2 -20 12 -13 18 -14 18 -23 0 -7 -11
-15 -15 -23 -10 -10 6 -9 11 5 22 24 17 40 17 55 -2z m-2760 -5 c0 -5 -7 -10
-15 -10 -8 0 -15 5 -15 10 0 6 7 10 15 10 8 0 15 -4 15 -10z m4068 -13 c3 -16
-2 -18 -32 -16 -19 2 -41 -2 -48 -9 -16 -16 -51 -16 -46 1 3 6 17 13 31 15 16
2 27 10 27 18 0 23 64 14 68 -9z m-3998 3 c0 -5 -4 -10 -10 -10 -5 0 -10 5
-10 10 0 6 5 10 10 10 6 0 10 -4 10 -10z m-295 -10 c3 -5 -1 -10 -9 -10 -9 0
-16 5 -16 10 0 6 4 10 9 10 6 0 13 -4 16 -10z m345 0 c0 -5 -4 -10 -10 -10 -5
0 -10 5 -10 10 0 6 5 10 10 10 6 0 10 -4 10 -10z m95 0 c-3 -5 -16 -10 -28
-10 -18 0 -19 2 -7 10 20 13 43 13 35 0z m2796 -12 c10 -18 9 -20 -6 -15 -9 4
-19 7 -21 7 -2 0 -4 7 -4 15 0 22 18 18 31 -7z m-2281 -23 c-7 -8 -18 -15 -25
-15 -7 0 -28 -18 -45 -40 -33 -42 -50 -50 -50 -25 0 18 37 53 83 78 39 21 54
22 37 2z m2062 3 c-9 -9 -15 -9 -24 0 -9 9 -7 12 12 12 19 0 21 -3 12 -12z
m187 -23 c39 -7 57 -16 59 -28 2 -9 -1 -17 -7 -17 -6 0 -11 7 -11 15 0 20 -16
19 -24 0 -5 -13 -9 -13 -25 -3 -25 16 -38 4 -18 -16 8 -9 13 -24 10 -35 -4
-15 1 -20 19 -23 12 -2 22 -7 20 -13 -2 -5 -11 -9 -20 -7 -9 2 -32 6 -50 9
-41 7 -50 21 -21 31 16 6 19 11 10 16 -7 5 -17 4 -23 -2 -7 -7 -18 -7 -34 0
-34 16 -30 26 16 38 44 12 58 25 35 34 -8 3 -15 10 -15 16 0 6 5 8 12 4 6 -4
37 -13 67 -19z m-549 0 c17 -9 32 -15 36 -14 3 0 8 -2 12 -5 12 -12 -64 -5
-80 8 -37 28 -15 35 32 11z m-1637 -20 c-3 -9 -8 -14 -10 -11 -3 3 -2 9 2 15
9 16 15 13 8 -4z m2084 9 c-3 -3 -12 -4 -19 -1 -8 3 -5 6 6 6 11 1 17 -2 13
-5z m-2007 -29 c0 -8 -7 -15 -15 -15 -16 0 -20 12 -8 23 11 12 23 8 23 -8z
m-1136 -10 c-7 -16 -49 -21 -59 -6 -3 5 7 12 22 14 16 2 31 5 35 6 4 0 5 -6 2
-14z m3331 -23 c0 -18 -20 -15 -23 4 -3 10 1 15 10 12 7 -3 13 -10 13 -16z
m-1945 2 c0 -6 -59 -64 -66 -64 -12 0 -1 33 16 50 19 19 50 27 50 14z m-1910
-24 c0 -5 -4 -10 -10 -10 -5 0 -10 5 -10 10 0 6 5 10 10 10 6 0 10 -4 10 -10z
m1530 -9 c0 -12 -20 -25 -27 -18 -7 7 6 27 18 27 5 0 9 -4 9 -9z m610 -11 c0
-5 -4 -10 -10 -10 -5 0 -10 5 -10 10 0 6 5 10 10 10 6 0 10 -4 10 -10z m-1990
-35 c0 -20 -11 -24 -36 -13 -32 15 -30 23 6 24 17 1 30 -4 30 -11z m2050 7 c0
-4 -5 -23 -11 -42 -5 -19 -12 -60 -14 -90 -2 -30 -11 -72 -19 -92 -10 -23 -16
-62 -14 -100 1 -35 -1 -70 -5 -78 -25 -64 -47 -142 -42 -149 7 -13 -41 -157
-52 -153 -4 1 -7 19 -7 40 1 23 -4 40 -12 45 -17 10 -8 58 13 70 7 4 13 17 13
27 0 11 7 20 15 20 9 0 15 9 15 25 0 16 -6 25 -15 25 -8 0 -15 -6 -15 -14 0
-7 -7 -19 -15 -26 -8 -7 -15 -23 -15 -36 0 -15 -6 -24 -15 -24 -19 0 -20 59
-1 66 8 3 16 18 19 34 4 17 15 31 27 35 24 7 26 23 5 31 -21 8 -19 37 5 76 11
18 20 42 20 53 0 16 -5 13 -29 -15 -16 -19 -34 -50 -41 -69 -11 -30 -10 -36 4
-46 20 -15 21 -25 2 -25 -9 0 -16 -12 -18 -32 -2 -25 -8 -34 -25 -36 -12 -2
-29 -14 -38 -28 -9 -14 -20 -22 -25 -19 -6 4 -10 -16 -10 -49 0 -52 -16 -86
-41 -86 -8 0 -4 95 6 127 2 7 0 15 -5 18 -4 3 -14 -12 -20 -32 -6 -21 -16 -48
-23 -61 -8 -17 -8 -28 1 -42 9 -16 6 -31 -18 -84 -16 -36 -40 -82 -54 -103
-15 -21 -26 -52 -26 -70 0 -23 -5 -33 -15 -33 -11 0 -14 -7 -9 -25 5 -19 2
-25 -10 -25 -10 0 -16 -8 -16 -22 0 -17 -3 -19 -12 -10 -14 14 -38 -2 -38 -24
0 -8 -7 -14 -15 -14 -8 0 -15 5 -15 12 0 9 -3 9 -12 -1 -11 -10 -9 -14 5 -22
20 -12 14 -31 -7 -23 -21 8 -25 38 -10 74 8 18 15 42 15 54 1 15 3 13 8 -8 10
-49 25 -39 47 31 15 51 25 69 39 71 25 4 65 65 65 97 0 13 5 27 10 30 6 3 10
27 9 53 0 38 -2 43 -9 25 -5 -13 -11 -33 -13 -45 -2 -13 -21 -51 -43 -84 -21
-34 -44 -70 -50 -80 -7 -11 -15 -15 -20 -11 -5 4 -2 17 5 28 9 15 10 40 6 83
-6 53 -4 65 13 86 27 33 33 24 21 -29 -5 -24 -8 -49 -6 -55 5 -15 37 60 37 88
0 25 10 41 29 47 16 6 41 73 41 112 0 17 5 27 15 27 8 0 26 11 40 25 24 24 25
32 26 135 1 76 5 110 14 113 17 7 81 107 89 140 7 29 13 32 35 18 11 -7 10
-16 -8 -53 -21 -44 -28 -88 -13 -88 11 0 92 74 92 84 0 5 -7 17 -16 27 -19 21
-11 55 17 69 17 10 18 8 12 -35 -6 -48 -2 -52 41 -35 15 6 28 20 32 37 11 43
54 95 54 65z m1760 -22 c0 -5 -2 -10 -4 -10 -3 0 -8 5 -11 10 -3 6 -1 10 4 10
6 0 11 -4 11 -10z m-3890 -40 c0 -5 -4 -10 -10 -10 -5 0 -10 5 -10 10 0 6 5
10 10 10 6 0 10 -4 10 -10z m1764 -45 c-10 -15 -20 -23 -22 -17 -3 11 29 54
36 48 2 -3 -4 -17 -14 -31z m-747 -1 c-3 -3 -12 -4 -19 -1 -8 3 -5 6 6 6 11 1
17 -2 13 -5z m58 -24 c-3 -5 -15 -10 -26 -10 -10 0 -19 5 -19 10 0 6 12 10 26
10 14 0 23 -4 19 -10z m3755 -15 c0 -8 -4 -15 -9 -15 -13 0 -22 16 -14 24 11
11 23 6 23 -9z m-3713 -1 c-3 -3 -12 -4 -19 -1 -8 3 -5 6 6 6 11 1 17 -2 13
-5z m1039 -56 c-3 -18 -9 -82 -12 -141 -5 -99 -8 -112 -35 -152 -17 -25 -35
-45 -41 -45 -12 0 -1 54 18 92 8 15 14 38 14 51 0 12 6 29 12 35 10 10 10 17
0 33 -15 23 -8 72 14 104 8 11 14 27 14 37 0 10 5 18 11 18 7 0 9 -12 5 -32z
m-836 -6 c0 -10 -31 -26 -79 -41 -41 -13 -64 -13 -36 0 11 5 34 18 50 28 31
20 65 27 65 13z m-753 -8 c-3 -3 -12 -4 -19 -1 -8 3 -5 6 6 6 11 1 17 -2 13
-5z m4083 -33 c9 -18 7 -19 -31 -16 -51 5 -59 12 -28 24 36 15 47 13 59 -8z
m-2399 -14 c-10 -9 -11 -8 -5 6 3 10 9 15 12 12 3 -3 0 -11 -7 -18z m-491 -28
c0 -5 -4 -9 -10 -9 -5 0 -10 7 -10 16 0 8 5 12 10 9 6 -3 10 -10 10 -16z m562
-26 c0 -27 0 -61 -1 -77 -2 -16 2 -39 7 -50 19 -41 34 -102 30 -126 -4 -32
-28 -38 -28 -7 0 38 -12 87 -20 87 -21 0 -20 -59 0 -96 17 -30 21 -48 16 -88
-3 -28 -6 -66 -6 -83 0 -36 -10 -42 -30 -18 -10 12 -10 24 -1 55 9 30 9 45 1
61 -8 14 -8 29 -1 49 7 22 6 32 -5 41 -15 13 -20 104 -5 113 4 3 12 46 15 96
8 95 25 122 28 43z m-675 12 c-4 -8 -11 -15 -17 -15 -7 0 -7 6 0 21 13 23 26
19 17 -6z m590 -7 c-3 -7 -5 -2 -5 12 0 14 2 19 5 13 2 -7 2 -19 0 -25z m-643
-70 c-10 -20 -19 -28 -22 -20 -2 7 4 22 14 33 25 27 27 24 8 -13z m602 -5
c-11 -11 -19 6 -11 24 8 17 8 17 12 0 3 -10 2 -21 -1 -24z m61 -20 c4 -30 1
-41 -10 -46 -20 -7 -25 8 -19 61 5 52 21 44 29 -15z m1838 7 c3 -5 1 -10 -4
-10 -6 0 -11 5 -11 10 0 6 2 10 4 10 3 0 8 -4 11 -10z m-2405 -29 c0 -5 -9
-30 -20 -56 -11 -26 -20 -58 -20 -71 0 -15 -6 -24 -16 -24 -11 0 -14 6 -9 23
4 12 9 31 12 42 14 56 53 119 53 86z m-137 -33 c-10 -11 -19 -15 -21 -8 -5 15
18 41 30 34 5 -3 1 -15 -9 -26z m633 -74 c-4 -13 -16 -32 -28 -44 -18 -17 -20
-23 -10 -45 7 -14 12 -38 11 -53 -1 -26 -1 -26 -10 6 -5 17 -12 32 -15 32 -11
0 -34 -71 -34 -105 0 -19 -4 -35 -10 -35 -17 0 -11 87 10 142 11 29 20 60 20
69 0 9 9 26 20 39 11 13 20 29 20 37 0 8 6 24 13 36 11 21 12 20 15 -17 2 -22
1 -50 -2 -62z m1532 78 c2 -7 -3 -12 -12 -12 -9 0 -16 7 -16 16 0 17 22 14 28
-4z m-68 -2 c0 -5 -4 -10 -10 -10 -5 0 -10 5 -10 10 0 6 5 10 10 10 6 0 10 -4
10 -10z m-1040 -4 c0 -3 -4 -8 -10 -11 -5 -3 -10 -1 -10 4 0 6 5 11 10 11 6 0
10 -2 10 -4z m1470 -52 c0 -14 -4 -23 -10 -19 -5 3 -10 15 -10 26 0 10 5 19
10 19 6 0 10 -12 10 -26z m-1644 -21 c-3 -21 -6 -47 -7 -58 0 -19 -1 -19 -9 2
-11 26 -2 93 13 93 6 0 7 -15 3 -37z m-960 0 c-10 -10 -19 5 -10 18 6 11 8 11
12 0 2 -7 1 -15 -2 -18z m74 8 c0 -6 -4 -13 -10 -16 -5 -3 -10 1 -10 9 0 9 5
16 10 16 6 0 10 -4 10 -9z m3275 -101 c3 -5 1 -10 -4 -10 -6 0 -11 5 -11 10 0
6 2 10 4 10 3 0 8 -4 11 -10z m-2948 -22 c-3 -8 -6 -5 -6 6 -1 11 2 17 5 13 3
-3 4 -12 1 -19z m-1557 -37 c-6 -12 -20 -21 -30 -21 -26 0 -25 6 8 39 29 30
42 19 22 -18z m1230 35 c0 -7 -7 -19 -15 -26 -8 -7 -15 -21 -15 -31 0 -11 -7
-19 -15 -19 -8 0 -15 9 -15 20 0 11 5 20 10 20 6 0 15 11 20 25 10 27 30 34
30 11z m379 -13 c0 -5 -4 -17 -9 -28 -8 -18 -9 -17 -9 8 -1 15 4 27 9 27 6 0
10 -3 9 -7z m-859 -13 c0 -5 -4 -10 -10 -10 -5 0 -10 5 -10 10 0 6 5 10 10 10
6 0 10 -4 10 -10z m-790 -59 c0 -11 -39 -25 -47 -18 -3 3 -2 10 2 16 8 13 45
15 45 2z m2264 -72 c4 -28 12 -60 18 -72 34 -67 35 -72 8 -55 -11 7 -20 18
-20 24 0 6 -6 17 -14 23 -21 17 -31 88 -15 107 9 11 9 18 1 26 -7 7 -12 17
-12 23 1 29 28 -32 34 -76z m-994 61 c0 -5 -4 -10 -9 -10 -5 0 -7 -9 -4 -20 6
-23 -22 -39 -40 -21 -8 8 -5 17 13 36 25 26 40 32 40 15z m344 -87 c-10 -29
-24 -53 -31 -53 -6 0 -15 -16 -19 -35 -3 -19 -10 -32 -15 -29 -17 10 -9 50 16
84 14 19 25 40 25 47 0 8 8 28 17 46 14 27 18 29 21 13 2 -11 -4 -43 -14 -73z
m-474 47 c-29 -41 -45 -49 -37 -19 4 13 7 27 7 31 0 6 20 13 43 17 5 0 -1 -12
-13 -29z m417 -27 c-3 -10 -5 -4 -5 12 0 17 2 24 5 18 2 -7 2 -21 0 -30z
m-1617 -18 c0 -23 -6 -38 -15 -42 -21 -7 -33 6 -16 16 7 5 10 14 6 20 -6 10
10 41 21 41 2 0 4 -16 4 -35z m1250 6 c-10 -20 -30 -29 -30 -14 0 10 33 44 37
39 3 -2 0 -14 -7 -25z m3774 10 c7 -11 -11 -25 -51 -39 -27 -9 -33 -8 -33 3 0
29 70 59 84 36z m-228 -36 c-23 -17 -55 -19 -76 -5 -11 8 -8 9 11 4 15 -3 30
-1 33 5 4 6 17 11 29 11 22 -1 22 -1 3 -15z m-3310 -32 c-11 -11 -19 6 -11 24
8 17 8 17 12 0 3 -10 2 -21 -1 -24z m-1426 19 c0 -13 -12 -22 -22 -16 -10 6
-1 24 13 24 5 0 9 -4 9 -8z m4819 -33 c-29 -18 -36 -10 -18 23 11 20 12 20 21
3 8 -12 7 -20 -3 -26z m-3562 -21 c-3 -8 -6 -5 -6 6 -1 11 2 17 5 13 3 -3 4
-12 1 -19z m483 18 c0 -3 -4 -8 -10 -11 -5 -3 -10 -1 -10 4 0 6 5 11 10 11 6
0 10 -2 10 -4z m-277 -28 c-4 -13 -13 -34 -22 -48 -9 -14 -23 -38 -31 -55 -26
-56 -60 -84 -60 -50 0 8 4 15 8 15 13 0 33 50 26 62 -9 15 15 56 37 61 11 3
19 12 19 21 0 9 6 16 14 16 10 0 12 -7 9 -22z m677 2 c0 -5 -4 -10 -10 -10 -5
0 -10 5 -10 10 0 6 5 10 10 10 6 0 10 -4 10 -10z m-530 -64 c0 -14 -4 -27 -9
-30 -12 -8 -22 20 -15 39 9 23 24 18 24 -9z m496 -3 c-10 -10 -19 5 -10 18 6
11 8 11 12 0 2 -7 1 -15 -2 -18z m244 -25 c0 -7 -9 -2 -20 12 -26 33 -26 50 0
22 11 -12 20 -27 20 -34z m-570 28 c0 -3 -4 -8 -10 -11 -5 -3 -10 -1 -10 4 0
6 5 11 10 11 6 0 10 -2 10 -4z m444 -29 c0 -9 -1 -31 -2 -48 -3 -47 -22 -24
-22 27 0 32 4 44 13 42 6 -3 12 -12 11 -21z m2166 -17 c0 -5 -4 -10 -10 -10
-5 0 -10 5 -10 10 0 6 5 10 10 10 6 0 10 -4 10 -10z m-2490 -26 c0 -8 -4 -12
-10 -9 -5 3 -10 10 -10 16 0 5 5 9 10 9 6 0 10 -7 10 -16z m-2307 -15 c-4 -15
-11 -19 -27 -15 -11 3 -32 6 -46 6 -24 1 -24 1 5 15 17 7 40 14 52 14 17 1 20
-3 16 -20z m2207 1 c0 -5 -5 -10 -11 -10 -5 0 -7 5 -4 10 3 6 8 10 11 10 2 0
4 -4 4 -10z m640 -25 c0 -8 5 -15 10 -15 6 0 10 -5 10 -11 0 -20 -24 -3 -42
30 -18 31 -18 32 2 21 11 -6 20 -17 20 -25z m-754 -12 c-10 -10 -19 5 -10 18
6 11 8 11 12 0 2 -7 1 -15 -2 -18z m179 17 c3 -5 1 -10 -4 -10 -6 0 -11 5 -11
10 0 6 2 10 4 10 3 0 8 -4 11 -10z m-2375 -20 c0 -5 -12 -10 -26 -10 -14 0
-23 4 -19 10 3 6 15 10 26 10 10 0 19 -4 19 -10z m1855 1 c3 -5 1 -12 -5 -16
-5 -3 -10 1 -10 9 0 18 6 21 15 7z"/>
<path d="M3590 3950 c0 -5 5 -10 10 -10 6 0 10 5 10 10 0 6 -4 10 -10 10 -5 0
-10 -4 -10 -10z"/>
<path d="M3738 3253 c7 -3 16 -2 19 1 4 3 -2 6 -13 5 -11 0 -14 -3 -6 -6z"/>
<path d="M3685 3190 c-3 -5 -1 -10 4 -10 6 0 11 5 11 10 0 6 -2 10 -4 10 -3 0
-8 -4 -11 -10z"/>
<path d="M3440 2511 c-15 -30 -12 -41 13 -41 37 0 51 14 38 39 -15 26 -37 27
-51 2z"/>
<path d="M3597 2494 c-8 -8 1 -24 14 -24 5 0 9 7 9 15 0 15 -12 20 -23 9z"/>
<path d="M3534 2479 c-3 -6 -1 -16 5 -22 8 -8 11 -5 11 11 0 24 -5 28 -16 11z"/>
<path d="M3315 1007 c-4 -10 -5 -21 -1 -24 10 -10 18 4 13 24 -4 17 -4 17 -12
0z"/>
<path d="M3107 890 c-11 -31 -28 -113 -23 -117 11 -12 25 11 31 51 8 48 2 92
-8 66z"/>
<path d="M3260 590 c0 -19 3 -21 12 -12 9 9 9 15 0 24 -9 9 -12 7 -12 -12z"/>
<path d="M1206 5792 c-3 -6 8 -15 24 -22 33 -14 43 -11 32 6 -10 16 -49 27
-56 16z"/>
<path d="M5760 5585 c-7 -8 -8 -15 -2 -15 5 0 15 7 22 15 7 8 8 15 2 15 -5 0
-15 -7 -22 -15z"/>
<path d="M5665 5550 c3 -5 13 -10 21 -10 8 0 12 5 9 10 -3 6 -13 10 -21 10 -8
0 -12 -4 -9 -10z"/>
<path d="M3790 5449 c0 -5 5 -7 10 -4 6 3 10 8 10 11 0 2 -4 4 -10 4 -5 0 -10
-5 -10 -11z"/>
<path d="M2122 5379 c-15 -24 -15 -29 1 -29 6 0 20 -14 29 -30 9 -17 24 -30
32 -30 13 0 13 3 0 28 -7 15 -14 35 -14 44 0 10 -8 22 -18 27 -14 7 -21 5 -30
-10z"/>
<path d="M4819 5326 c-55 -17 -93 -46 -80 -59 15 -15 14 -27 -3 -27 -8 0 -16
-7 -20 -15 -4 -10 1 -15 15 -15 11 0 23 8 26 17 9 23 69 83 83 83 6 0 18 7 26
15 19 18 6 18 -47 1z"/>
<path d="M1938 5268 c9 -9 15 -9 24 0 9 9 7 12 -12 12 -19 0 -21 -3 -12 -12z"/>
<path d="M6110 5266 c0 -9 30 -14 35 -6 4 6 -3 10 -14 10 -12 0 -21 -2 -21 -4z"/>
<path d="M2285 5250 c3 -5 10 -10 16 -10 5 0 9 5 9 10 0 6 -7 10 -16 10 -8 0
-12 -4 -9 -10z"/>
<path d="M6188 5203 c6 -2 18 -2 25 0 6 3 1 5 -13 5 -14 0 -19 -2 -12 -5z"/>
<path d="M703 5124 c-34 -14 -44 -34 -19 -34 18 0 76 32 76 43 0 10 -20 7 -57
-9z"/>
<path d="M6116 5090 c-21 -22 -46 -40 -56 -40 -19 0 -36 -17 -27 -26 12 -12
101 10 124 31 21 17 25 27 19 48 -3 15 -10 27 -14 27 -4 -1 -24 -19 -46 -40z"/>
<path d="M6233 5010 c-10 -11 -22 -20 -28 -20 -5 0 -21 -9 -35 -20 -22 -17
-23 -19 -7 -26 14 -5 15 -9 6 -20 -6 -8 -18 -14 -26 -14 -19 0 -28 -27 -14
-44 9 -10 6 -17 -14 -30 -28 -18 -33 -36 -10 -36 26 0 16 -14 -25 -38 -51 -29
-51 -42 0 -35 47 7 52 -7 10 -26 -35 -15 -35 -34 -1 -39 32 -5 23 -31 -19 -53
-28 -15 -31 -19 -13 -19 33 0 37 -19 6 -26 -45 -11 -104 -44 -98 -55 4 -5 22
-7 41 -3 22 4 34 2 34 -5 0 -6 -7 -11 -15 -11 -12 0 -10 -5 6 -21 16 -16 18
-23 8 -35 -9 -12 -6 -14 21 -14 19 0 41 -6 49 -14 9 -7 38 -18 64 -25 45 -11
50 -10 65 9 9 12 26 22 37 24 13 2 21 12 23 30 2 15 9 29 15 31 68 24 68 24
57 46 -10 18 -8 25 13 48 14 14 28 36 31 48 6 19 2 23 -31 32 -21 6 -46 11
-56 11 -14 0 -39 10 -67 28 -7 5 54 51 68 52 24 0 26 32 3 50 l-23 16 27 18
c15 10 44 23 65 29 33 11 37 15 29 35 -7 18 -16 22 -48 22 -58 0 -59 16 -1 51
27 17 48 35 45 40 -9 13 -76 29 -128 29 -35 0 -52 -5 -64 -20z"/>
<path d="M5215 5000 c3 -5 15 -10 26 -10 10 0 19 5 19 10 0 6 -12 10 -26 10
-14 0 -23 -4 -19 -10z"/>
<path d="M1070 4907 c0 -19 21 -37 42 -37 23 0 23 12 0 33 -22 20 -42 22 -42
4z"/>
<path d="M1550 4880 c-13 -8 -12 -10 3 -10 9 0 20 0 24 -1 4 0 9 4 11 10 5 14
-18 14 -38 1z"/>
<path d="M1524 4809 c-18 -5 -34 -16 -38 -24 -7 -19 -3 -19 44 5 57 29 55 37
-6 19z"/>
<path d="M1100 4760 c-12 -8 -9 -10 13 -10 16 0 26 4 22 10 -8 12 -16 12 -35
0z"/>
<path d="M5983 4656 c-28 -13 -30 -26 -3 -26 27 0 70 21 64 31 -7 12 -33 9
-61 -5z"/>
<path d="M5863 4649 c14 -8 22 -8 30 0 8 8 3 11 -18 11 -26 -1 -28 -2 -12 -11z"/>
<path d="M5895 4580 c-3 -5 1 -10 10 -10 9 0 13 5 10 10 -3 6 -8 10 -10 10 -2
0 -7 -4 -10 -10z"/>
<path d="M5958 4423 c7 -3 16 -2 19 1 4 3 -2 6 -13 5 -11 0 -14 -3 -6 -6z"/>
<path d="M1000 4365 c0 -8 5 -15 10 -15 6 0 10 7 10 15 0 8 -4 15 -10 15 -5 0
-10 -7 -10 -15z"/>
<path d="M800 4349 c0 -11 5 -17 10 -14 6 3 10 13 10 21 0 8 -4 14 -10 14 -5
0 -10 -9 -10 -21z"/>
<path d="M5730 4210 c0 -5 5 -10 10 -10 6 0 10 5 10 10 0 6 -4 10 -10 10 -5 0
-10 -4 -10 -10z"/>
<path d="M1183 4193 c-7 -2 -13 -11 -13 -18 0 -10 9 -11 36 -5 52 12 67 30 24
29 -19 0 -41 -3 -47 -6z"/>
<path d="M1016 4128 c5 -13 7 -40 6 -60 -2 -28 2 -40 17 -48 27 -14 25 -14 60
20 58 58 51 92 -19 96 -23 1 -44 4 -47 8 -14 14 -24 4 -17 -16z"/>
<path d="M1185 4055 c-30 -29 -31 -41 -6 -48 25 -6 31 0 31 30 0 13 6 23 14
23 8 0 18 5 21 10 13 21 -37 9 -60 -15z"/>
<path d="M2140 3679 c-22 -6 -20 -7 13 -8 38 -1 47 3 25 11 -7 3 -24 1 -38 -3z"/>
<path d="M1060 3530 c0 -5 5 -10 10 -10 6 0 10 5 10 10 0 6 -4 10 -10 10 -5 0
-10 -4 -10 -10z"/>
<path d="M2048 3473 c-32 -8 -19 -18 25 -20 42 -3 77 10 65 22 -4 4 -15 2 -24
-3 -10 -6 -25 -7 -34 -3 -8 4 -23 6 -32 4z"/>
<path d="M1975 3460 c4 -6 11 -8 16 -5 14 9 11 15 -7 15 -8 0 -12 -5 -9 -10z"/>
<path d="M6520 3427 c0 -13 47 -34 56 -25 7 7 -12 26 -33 32 -17 5 -23 3 -23
-7z"/>
<path d="M2515 2920 c3 -5 8 -10 11 -10 2 0 4 5 4 10 0 6 -5 10 -11 10 -5 0
-7 -4 -4 -10z"/>
<path d="M1245 2761 c-8 -15 35 -35 47 -23 6 6 7 15 4 21 -9 14 -43 14 -51 2z"/>
<path d="M6030 2762 c0 -14 38 -44 50 -40 14 4 -17 48 -36 48 -8 0 -14 -4 -14
-8z"/>
<path d="M1038 2520 c-3 -14 -9 -34 -13 -45 -7 -18 -5 -17 15 3 18 19 20 28
13 45 -10 21 -10 21 -15 -3z"/>
<path d="M6001 2492 c-8 -16 -7 -25 9 -44 l20 -23 -4 38 c-4 47 -11 55 -25 29z"/>
<path d="M0 1631 c0 -417 1 -441 17 -432 74 40 249 86 317 82 30 -1 52 2 57
10 9 16 55 21 150 19 56 -1 79 3 88 14 18 21 -2 29 -46 17 -51 -15 -63 -14
-63 4 0 8 -8 15 -18 15 -10 0 -23 5 -29 11 -14 14 -68 -9 -106 -45 -38 -35
-53 -23 -22 18 37 48 31 70 -13 47 -9 -4 -41 -11 -70 -15 -70 -9 -67 11 6 34
53 17 82 36 82 51 0 5 -11 7 -24 3 -13 -3 -34 0 -47 6 -22 12 -22 13 -3 27 13
10 33 12 64 8 35 -5 49 -2 65 12 11 10 33 26 48 36 22 15 26 21 17 32 -9 11
-7 17 9 27 12 7 21 18 21 25 0 7 11 13 24 13 22 0 23 2 13 25 -13 27 -36 32
-69 14 -34 -19 -30 -3 7 22 42 29 43 38 10 73 -14 15 -25 30 -25 34 0 4 -12
12 -26 19 -21 10 -32 9 -55 -2 -32 -17 -59 -19 -59 -5 0 6 6 10 14 10 26 0 30
40 7 64 -18 17 -24 19 -41 8 -27 -17 -32 -15 -28 10 2 16 -3 24 -19 27 -12 4
-46 28 -77 56 -40 37 -63 50 -88 51 -18 1 -45 5 -60 9 l-28 7 0 -441z"/>
<path d="M6220 2060 c0 -5 6 -10 14 -10 8 0 23 -3 33 -6 16 -6 16 -5 -2 9 -23
19 -45 22 -45 7z"/>
<path d="M5975 2040 c3 -5 15 -10 25 -10 10 0 22 5 25 10 4 6 -7 10 -25 10
-18 0 -29 -4 -25 -10z"/>
<path d="M1110 2025 l-35 -13 31 -1 c16 -1 39 6 50 14 25 19 3 19 -46 0z"/>
<path d="M5980 1982 c0 -10 51 -24 59 -16 7 6 -2 12 -32 19 -16 4 -27 3 -27
-3z"/>
<path d="M6850 1850 c0 -5 5 -10 10 -10 6 0 10 5 10 10 0 6 -4 10 -10 10 -5 0
-10 -4 -10 -10z"/>
<path d="M1278 1843 c7 -3 16 -2 19 1 4 3 -2 6 -13 5 -11 0 -14 -3 -6 -6z"/>
<path d="M1208 1823 c6 -2 18 -2 25 0 6 3 1 5 -13 5 -14 0 -19 -2 -12 -5z"/>
<path d="M6870 1820 c0 -5 6 -10 14 -10 8 0 18 5 21 10 3 6 -3 10 -14 10 -12
0 -21 -4 -21 -10z"/>
<path d="M1390 1713 c-31 -6 -44 -18 -36 -32 4 -6 19 -5 44 6 68 27 64 39 -8
26z"/>
<path d="M6920 1704 c0 -8 5 -12 10 -9 6 3 10 10 10 16 0 5 -4 9 -10 9 -5 0
-10 -7 -10 -16z"/>
<path d="M6308 1693 c-10 -2 -18 -9 -18 -14 0 -15 43 -7 48 9 4 12 0 13 -30 5z"/>
<path d="M6443 1693 c15 -2 37 -2 50 0 12 2 0 4 -28 4 -27 0 -38 -2 -22 -4z"/>
<path d="M1195 1640 c-4 -6 7 -10 25 -10 18 0 29 4 25 10 -3 6 -15 10 -25 10
-10 0 -22 -4 -25 -10z"/>
<path d="M550 1629 c0 -5 5 -7 10 -4 6 3 10 8 10 11 0 2 -4 4 -10 4 -5 0 -10
-5 -10 -11z"/>
<path d="M6209 1584 c-26 -28 -95 -60 -118 -56 -19 5 -149 -36 -156 -49 -13
-19 5 -23 52 -11 44 12 47 12 73 -13 23 -22 38 -27 101 -30 50 -3 66 -2 49 4
-28 10 -19 14 24 11 19 -1 27 2 24 11 -7 20 -47 26 -107 17 -60 -10 -76 -3
-46 18 13 9 40 13 80 12 33 -1 67 0 75 3 8 3 12 4 8 2 -5 -3 -8 -10 -8 -16 0
-23 102 -14 137 11 17 12 41 22 54 22 29 0 89 22 89 32 0 4 -5 8 -11 8 -8 0
-8 5 1 15 10 13 9 15 -8 15 -12 0 -24 -4 -27 -10 -3 -5 -25 -10 -48 -10 -30 0
-38 -3 -27 -10 23 -14 9 -19 -43 -13 -32 4 -44 9 -35 14 21 14 -5 11 -53 -6
-29 -11 -46 -12 -53 -5 -12 12 -3 23 39 44 l30 16 -36 0 c-25 0 -42 -7 -60
-26z m148 -80 c-3 -3 -12 -4 -19 -1 -8 3 -5 6 6 6 11 1 17 -2 13 -5z"/>
<path d="M1450 1590 c0 -5 15 -10 34 -10 19 0 38 5 41 10 4 6 -10 10 -34 10
-23 0 -41 -4 -41 -10z"/>
<path d="M6085 1579 c-4 -6 -4 -13 -1 -16 8 -8 36 5 36 17 0 13 -27 13 -35 -1z"/>
<path d="M5858 1463 c7 -3 16 -2 19 1 4 3 -2 6 -13 5 -11 0 -14 -3 -6 -6z"/>
<path d="M898 1453 c7 -3 16 -2 19 1 4 3 -2 6 -13 5 -11 0 -14 -3 -6 -6z"/>
<path d="M387 1423 c-25 -24 18 -32 49 -8 18 14 17 14 -12 15 -17 0 -34 -3
-37 -7z"/>
<path d="M485 1400 c-3 -5 1 -10 10 -10 9 0 13 5 10 10 -3 6 -8 10 -10 10 -2
0 -7 -4 -10 -10z"/>
<path d="M6438 1373 c7 -3 16 -2 19 1 4 3 -2 6 -13 5 -11 0 -14 -3 -6 -6z"/>
<path d="M1190 1360 c0 -12 8 -12 35 0 18 8 17 9 -7 9 -16 1 -28 -3 -28 -9z"/>
<path d="M1252 1350 c6 -18 58 -27 58 -10 0 7 -7 9 -16 6 -9 -4 -23 -1 -32 6
-13 11 -14 10 -10 -2z"/>
<path d="M1565 1350 c3 -5 10 -10 16 -10 5 0 9 5 9 10 0 6 -7 10 -16 10 -8 0
-12 -4 -9 -10z"/>
<path d="M6395 1339 c-16 -3 -28 -8 -25 -9 16 -6 150 -7 143 0 -12 11 -84 17
-118 9z"/>
<path d="M1382 1333 c-39 -5 -38 -26 1 -31 19 -2 27 1 27 12 0 8 10 17 23 19
17 3 18 4 2 4 -11 0 -35 -2 -53 -4z"/>
<path d="M638 1293 c7 -3 16 -2 19 1 4 3 -2 6 -13 5 -11 0 -14 -3 -6 -6z"/>
<path d="M1040 1290 c0 -5 7 -10 16 -10 8 0 12 5 9 10 -3 6 -10 10 -16 10 -5
0 -9 -4 -9 -10z"/>
<path d="M1503 1289 c-18 -5 -33 -14 -33 -19 0 -6 -9 -10 -19 -10 -11 0 -23
-4 -26 -10 -3 -5 3 -10 14 -10 11 0 23 5 26 10 3 6 17 10 30 10 13 0 27 5 30
10 3 6 20 10 36 10 18 0 28 4 24 10 -7 12 -38 12 -82 -1z"/>
<path d="M395 1268 c-16 -5 -55 -13 -85 -19 -30 -5 -67 -15 -82 -21 l-28 -10
25 -20 c21 -16 28 -18 41 -7 13 10 19 8 41 -13 32 -32 22 -51 -23 -46 -20 2
-34 0 -34 -7 0 -16 172 -12 196 6 32 22 36 37 18 64 -9 14 -14 32 -10 40 6 17
36 21 36 4 0 -23 30 -39 72 -38 36 0 39 2 21 9 -13 5 -23 14 -23 19 0 5 -13
19 -30 31 -23 17 -34 19 -50 10 -12 -7 -27 -7 -37 -2 -11 5 -30 5 -48 0z m-7
-83 c-3 -3 -9 2 -12 12 -6 14 -5 15 5 6 7 -7 10 -15 7 -18z"/>
<path d="M1100 1270 c0 -5 4 -10 9 -10 6 0 13 5 16 10 3 6 -1 10 -9 10 -9 0
-16 -4 -16 -10z"/>
<path d="M570 1260 c0 -5 7 -10 15 -10 8 0 15 5 15 10 0 6 -7 10 -15 10 -8 0
-15 -4 -15 -10z"/>
<path d="M6248 1263 c7 -3 16 -2 19 1 4 3 -2 6 -13 5 -11 0 -14 -3 -6 -6z"/>
<path d="M625 1240 c-3 -5 1 -10 9 -10 9 0 16 5 16 10 0 6 -4 10 -9 10 -6 0
-13 -4 -16 -10z"/>
<path d="M54 1189 c-3 -6 -3 -14 2 -18 9 -6 28 -43 37 -71 4 -12 6 -11 6 2 1
11 6 15 16 12 19 -8 31 22 16 40 -9 10 -8 15 4 20 9 3 13 10 10 16 -8 14 -82
13 -91 -1z"/>
<path d="M0 1145 c0 -25 7 -46 21 -61 17 -18 19 -26 10 -43 -7 -12 -16 -21
-21 -21 -15 0 -13 -433 2 -448 7 -7 25 -12 40 -12 16 0 37 -5 48 -12 15 -10
22 -9 39 6 13 12 27 16 41 11 16 -5 21 -3 18 6 -5 15 70 99 88 99 6 0 17 6 24
14 6 8 17 13 25 10 7 -3 16 -1 20 5 3 6 0 11 -7 11 -7 0 11 22 39 49 29 27 53
54 53 60 0 19 -26 12 -53 -15 -15 -14 -31 -24 -37 -22 -15 5 54 78 73 78 8 0
17 6 20 14 3 8 16 16 29 18 12 2 28 13 34 26 6 13 26 38 43 56 40 41 47 89 14
94 -13 2 -23 -1 -23 -6 0 -5 -11 -14 -24 -20 -21 -9 -23 -8 -19 9 3 10 9 19
14 19 5 0 9 3 9 8 0 4 -39 4 -87 1 -48 -4 -92 -5 -99 -2 -7 2 -15 0 -19 -6 -3
-6 -17 -11 -29 -11 -53 0 -87 -66 -86 -167 0 -26 -21 -30 -44 -8 -19 19 -32
20 -16 0 7 -8 10 -25 6 -39 -3 -14 -2 -36 4 -50 5 -14 6 -26 2 -26 -27 2 -82
86 -82 128 0 15 -7 36 -15 46 -21 28 -18 45 10 58 25 11 25 11 6 32 -20 22
-37 70 -33 97 2 8 -7 24 -18 34 -20 18 -20 18 -20 -20z m440 -83 c0 -5 -20
-30 -45 -56 -46 -49 -79 -57 -68 -17 4 15 1 21 -12 21 -10 0 -15 6 -13 17 5
25 28 28 28 4 0 -28 26 -27 41 2 7 12 17 25 23 29 15 10 46 10 46 0z m7 -90
c-32 -34 -34 -42 -7 -35 11 3 20 0 20 -6 0 -6 -6 -11 -14 -11 -8 0 -16 -6 -19
-14 -3 -8 -20 -14 -42 -14 -19 0 -42 -5 -50 -12 -17 -14 -45 -7 -45 11 0 6 9
9 20 6 13 -3 24 1 30 14 6 10 15 19 21 19 6 0 22 14 36 31 25 29 63 52 72 43
3 -2 -8 -17 -22 -32z m-194 -269 c-5 -19 -72 -67 -81 -58 -3 3 -3 6 -1 8 2 1
21 17 42 35 44 37 47 38 40 15z"/>
<path d="M980 1150 c42 -38 69 -52 85 -46 26 10 16 21 -37 41 -29 11 -57 21
-63 24 -5 2 1 -6 15 -19z"/>
<path d="M823 1117 c28 -23 158 -35 136 -13 -2 2 -33 7 -69 11 -35 3 -69 9
-75 11 -5 3 -2 -1 8 -9z"/>
<path d="M968 973 c7 -3 16 -2 19 1 4 3 -2 6 -13 5 -11 0 -14 -3 -6 -6z"/>
<path d="M1467 973 c-14 -14 -6 -34 11 -31 11 2 27 -3 36 -11 13 -11 20 -11
24 -3 4 6 20 15 35 21 15 6 27 15 27 21 0 14 -43 13 -58 -2 -9 -9 -15 -9 -24
0 -13 13 -41 16 -51 5z"/>
<path d="M1140 860 c0 -5 7 -10 16 -10 8 0 12 5 9 10 -3 6 -10 10 -16 10 -5 0
-9 -4 -9 -10z"/>
<path d="M5955 821 c-3 -5 -19 -12 -35 -16 -17 -4 -30 -11 -30 -16 0 -12 3
-12 36 6 16 8 41 15 56 15 15 0 30 5 33 10 4 6 -6 10 -24 10 -16 0 -32 -4 -36
-9z"/>
<path d="M5965 650 c-3 -5 -1 -10 4 -10 6 0 11 5 11 10 0 6 -2 10 -4 10 -3 0
-8 -4 -11 -10z"/>
<path d="M2 505 c0 -36 3 -45 17 -45 10 0 21 3 25 8 4 4 26 14 49 23 l42 17
-45 12 c-25 6 -53 16 -62 21 -26 13 -26 13 -26 -36z"/>
<path d="M0 400 c0 -5 5 -10 10 -10 6 0 10 5 10 10 0 6 -4 10 -10 10 -5 0 -10
-4 -10 -10z"/>
<path d="M640 99 c0 -5 9 -9 20 -9 11 0 20 2 20 4 0 2 -9 6 -20 9 -11 3 -20 1
-20 -4z"/>
<path d="M731 20 l-23 -20 61 0 c48 0 61 3 61 15 0 8 -8 15 -17 15 -10 0 -27
2 -38 5 -11 3 -30 -4 -44 -15z"/>
<path d="M895 10 c-3 -5 1 -10 10 -10 9 0 13 5 10 10 -3 6 -8 10 -10 10 -2 0
-7 -4 -10 -10z"/>
</g>
</svg>
